<?xml version="1.0" encoding="UTF-8" standalone="no"?>
<svg
   width="1024"
   height="1024"
   version="1.1"
   id="svg157"
   xmlns="http://www.w3.org/2000/svg"
   xmlns:svg="http://www.w3.org/2000/svg">
  <defs
     id="defs27">
    <linearGradient
       id="gradient_0"
       gradientUnits="userSpaceOnUse"
       x1="874.63312"
       y1="671.17255"
       x2="893.6908"
       y2="668.19891">
      <stop
         offset="0"
         stop-color="#021009"
         id="stop26" />
      <stop
         offset="1"
         stop-color="#08380D"
         id="stop27" />
    </linearGradient>
  </defs>
  <path
     fill="#5A5859"
     d="M170.099 233.746C170.532 240.957 170.365 248.253 170.388 255.478Q182.497 255.379 194.606 255.428L194.921 255.548C214.575 255.504 234.214 254.936 253.873 255.072L253.957 255.556C254.486 274.998 254.045 294.54 253.971 313.99L240.739 313.962C230.318 313.846 219.866 313.625 209.447 313.78C209.451 322.795 209.532 331.816 209.426 340.83Q241.087 340.404 272.75 340.589L385.3 340.688L446.726 340.674C456.292 340.676 466.749 339.858 476.204 340.909C464.826 341.362 453.355 341.072 441.967 341.068L382.802 341.04L220.912 341.03L220.579 396.493L211.496 396.358L211.473 456.493C209.46 456.493 207.368 456.371 205.365 456.505L205.307 484.844C218.294 484.566 236.151 483.593 248.691 484.924C241.856 485.442 234.802 485.109 227.94 485.093L215.529 485.063L215.574 587.953C221.358 587.928 227.334 587.613 233.091 588.072C226.36 588.556 219.445 588.515 212.697 588.369C213.811 608.791 213.539 629.582 213.597 650.049L205.541 650.056L205.522 678.173C211.857 678.044 218.53 677.527 224.84 678.077C222.079 678.931 217.918 678.325 214.97 678.376C215.001 687.074 214.33 696.503 215.396 705.107L225.411 705.165L225.499 707.422C225.492 711.771 225.607 716.156 225.446 720.501L224.961 720.594C222.011 721.391 218.46 721.004 215.409 720.888L215.612 743.034L225.471 743.021L225.481 757.964L215.585 758.039C215.295 765.872 215.546 773.723 215.581 781.56C218.213 781.612 220.996 781.483 223.589 781.933L225.413 782.021C225.458 786.782 225.643 791.589 225.416 796.344C225.258 804.422 225 812.602 225.4 820.674L225.517 835.534L224.927 835.585C221.907 836.343 218.241 835.963 215.12 835.933C215.204 841.157 215.313 846.358 215.66 851.573C208.353 851.253 200.967 851.683 193.641 851.532L189.013 851.494C186.262 851.538 183.529 851.697 180.815 851.167L180.492 851.207L180.442 836.038L169.68 835.997C169.519 819.27 169.784 802.524 169.745 785.794L170.363 496.306Q169.777 397.535 170.26 298.769Q170.388 281.176 170.27 263.582C170.137 253.633 169.735 243.696 170.099 233.746Z"
     id="path30" />
  <path
     fill="#333"
     d="M223.589 781.933L225.413 782.021C225.458 786.782 225.643 791.589 225.416 796.344L224.814 796.57Q209.473 796.396 194.131 796.55C193.847 791.727 194.028 786.862 194.086 782.033C203.912 781.99 213.769 782.303 223.589 781.933Z"
     id="path31" />
  <path
     fill="#8D8A8C"
     d="M194.368 720.95C201.374 720.855 208.407 720.645 215.409 720.888L215.612 743.034L209.532 743.076C204.582 742.574 199.362 742.908 194.378 742.913L194.368 720.95Z"
     id="path32" />
  <path
     fill="#333"
     d="M215.612 743.034L225.471 743.021L225.481 757.964L215.585 758.039Q206.131 757.992 196.678 758.125L194.957 757.913C192.725 755.459 193.916 746.752 194.022 743.385C199.192 743.366 204.373 743.427 209.532 743.076L215.612 743.034Z"
     id="path33" />
  <path
     fill="#333"
     d="M215.396 705.107L225.411 705.165L225.499 707.422C225.492 711.771 225.607 716.156 225.446 720.501L224.961 720.594C214.72 720.218 204.425 720.446 194.177 720.471C194.168 715.336 194.117 710.215 194.509 705.091L215.396 705.107Z"
     id="path34" />
  <path
     fill="#8D8A8C"
     d="M196.678 758.125Q206.131 757.992 215.585 758.039C215.295 765.872 215.546 773.723 215.581 781.56C208.492 781.301 201.318 781.546 194.22 781.566C194.282 777.983 193.616 760.336 194.749 758.532L196.678 758.125Z"
     id="path35" />
  <path
     fill="#8D8A8C"
     d="M224.814 796.57L225.416 796.344C225.258 804.422 225 812.602 225.4 820.674L220.019 820.586C211.887 821.518 202.516 821.364 194.358 820.714C194.331 812.67 194.638 804.579 194.131 796.55Q209.473 796.396 224.814 796.57Z"
     id="path36" />
  <path
     fill="#A7A6A6"
     d="M224.814 796.57L225.416 796.344C225.258 804.422 225 812.602 225.4 820.674L220.019 820.586C218.549 820.473 217.001 820.592 215.734 819.8C214.986 812.383 215.543 804.502 215.59 797.033C218.617 797.018 221.857 797.261 224.814 796.57Z"
     id="path37" />
  <path
     fill="#333"
     d="M180.587 820.265C185.035 819.985 189.993 819.779 194.358 820.714C202.516 821.364 211.887 821.518 220.019 820.586L225.4 820.674L225.517 835.534L224.927 835.585C221.907 836.343 218.241 835.963 215.12 835.933C215.204 841.157 215.313 846.358 215.66 851.573C208.353 851.253 200.967 851.683 193.641 851.532L189.013 851.494C186.262 851.538 183.529 851.697 180.815 851.167C181.109 840.884 180.522 830.562 180.587 820.265Z"
     id="path38" />
  <path
     fill="#8D8A8C"
     d="M193.584 836.032C200.758 835.906 207.944 835.961 215.12 835.933C215.204 841.157 215.313 846.358 215.66 851.573C208.353 851.253 200.967 851.683 193.641 851.532L193.584 836.032Z"
     id="path39" />
  <path
     fill="#8D8A8C"
     d="M194.921 255.548C214.575 255.504 234.214 254.936 253.873 255.072L253.957 255.556C254.486 274.998 254.045 294.54 253.971 313.99L240.739 313.962C230.318 313.846 219.866 313.625 209.447 313.78C209.451 322.795 209.532 331.816 209.426 340.83Q241.087 340.404 272.75 340.589L385.3 340.688L446.726 340.674C456.292 340.676 466.749 339.858 476.204 340.909C464.826 341.362 453.355 341.072 441.967 341.068L382.802 341.04L220.912 341.03L220.579 396.493L211.496 396.358L211.473 456.493C209.46 456.493 207.368 456.371 205.365 456.505L205.307 484.844C218.294 484.566 236.151 483.593 248.691 484.924C241.856 485.442 234.802 485.109 227.94 485.093L215.529 485.063L215.574 587.953C221.358 587.928 227.334 587.613 233.091 588.072C226.36 588.556 219.445 588.515 212.697 588.369C213.811 608.791 213.539 629.582 213.597 650.049L205.541 650.056L205.522 678.173C211.857 678.044 218.53 677.527 224.84 678.077C222.079 678.931 217.918 678.325 214.97 678.376C215.001 687.074 214.33 696.503 215.396 705.107L194.509 705.091C194.825 695.682 194.513 686.189 194.605 676.768Q195.096 636.176 194.864 595.581L194.576 366.872L194.629 290.001C194.664 278.652 193.821 266.811 194.921 255.548Z"
     id="path40" />
  <path
     fill="#A7A6A6"
     d="M240.905 255.56L253.957 255.556C254.486 274.998 254.045 294.54 253.971 313.99L240.739 313.962Q240.999 284.762 240.905 255.56Z"
     id="path41" />
  <path
     fill="#006C2A"
     d="M578.856 195.122C582.443 195.71 586.294 195.462 589.932 195.458C593.96 195.61 598.04 195.479 602.074 195.481C610.99 195.481 664.502 196.44 668.955 195.038L669.714 195.128Q673.9 195.334 678.09 195.414C677.918 213.165 678.343 230.936 678.405 248.69C678.453 262.63 678.035 276.73 678.585 290.65C700.78 290.385 722.991 290.55 745.189 290.574C757.601 290.587 770.42 289.961 782.778 290.793C798.617 291.355 814.65 290.91 830.5 290.586L830.473 314.332L816.139 314.435C751.887 313.641 687.6 315.058 623.344 314.386L617.997 314.462L617.993 340.996L476.204 340.909C466.749 339.858 456.292 340.676 446.726 340.674L385.3 340.688L272.75 340.589Q241.087 340.404 209.426 340.83C209.532 331.816 209.451 322.795 209.447 313.78C219.866 313.625 230.318 313.846 240.739 313.962L253.971 313.99C254.045 294.54 254.486 274.998 253.957 255.556L253.873 255.072C234.214 254.936 214.575 255.504 194.921 255.548L194.606 255.428Q182.497 255.379 170.388 255.478C170.365 248.253 170.532 240.957 170.099 233.746L170.105 228.359C178.605 227.31 187.867 228.018 196.465 228.013L248.956 228.016L387.954 228.134C412.402 228.172 437.105 228.944 461.524 228.122L495.954 274.149C499.985 279.61 504.814 285.081 508.446 290.765C524.732 291.895 541.62 290.96 557.967 290.889C558.538 280.216 558.053 269.271 558.05 258.572L558.026 195.083L578.856 195.122Z"
     id="path43" />
  <path
     fill="#333"
     d="M170.105 228.359C178.221 229.267 186.855 228.679 195.023 228.551C194.976 233.891 196.084 251.664 194.606 255.428Q182.497 255.379 170.388 255.478C170.365 248.253 170.532 240.957 170.099 233.746L170.105 228.359Z"
     id="path44" />
  <path
     fill="#333"
     d="M607.93 233.602C612.614 233.118 617.097 233.472 621.318 235.746C625.704 238.109 628.692 242.142 630.126 246.872C631.954 252.908 631.362 260.04 628.32 265.592C625.175 271.329 620.396 274.025 614.353 275.827Q613.623 275.885 612.89 275.892Q612.158 275.898 611.426 275.853Q610.695 275.809 609.969 275.712Q609.243 275.616 608.525 275.469Q607.807 275.321 607.102 275.124Q606.396 274.927 605.706 274.68Q605.016 274.434 604.345 274.139Q603.674 273.845 603.026 273.504C597.709 270.745 593.779 265.729 592.104 260.004Q591.954 259.492 591.831 258.974Q591.707 258.455 591.61 257.931Q591.512 257.407 591.442 256.878Q591.371 256.35 591.327 255.819Q591.283 255.287 591.266 254.754Q591.25 254.221 591.26 253.688Q591.27 253.155 591.307 252.624Q591.344 252.092 591.408 251.562Q591.472 251.033 591.562 250.508Q591.653 249.982 591.77 249.462Q591.887 248.942 592.03 248.428Q592.173 247.915 592.342 247.409Q592.511 246.904 592.706 246.407Q592.9 245.911 593.119 245.425Q593.339 244.939 593.582 244.465Q593.826 243.99 594.093 243.529C597.297 237.907 601.952 235.354 607.93 233.602Z"
     id="path45" />
  <path
     fill="#333"
     d="M502.555 314.054C504.33 306.544 505.438 298.8 507.302 291.352L508.446 290.765C524.732 291.895 541.62 290.96 557.967 290.889L579.269 290.93C592.085 291.533 605.116 291.032 617.955 290.98L617.958 313.991C614.36 314.462 610.319 314.106 606.678 314.098L585.258 314.068L502.555 314.054Z"
     id="path46" />
  <path
     fill="#8D8A8C"
     d="M253.873 255.072Q264.689 254.723 275.507 254.963C303.434 255.218 331.553 255.629 359.468 255.022L359.572 255.598C360.355 274.968 359.628 294.612 359.552 314.012L348.426 314.026L275.554 313.977C268.371 313.838 261.157 313.984 253.971 313.99C254.045 294.54 254.486 274.998 253.957 255.556L253.873 255.072Z"
     id="path47" />
  <path
     fill="#A7A6A6"
     d="M359.572 255.598C360.355 274.968 359.628 294.612 359.552 314.012L348.426 314.026C347.939 294.614 348.465 275.049 348.476 255.621L359.572 255.598Z"
     id="path48" />
  <path
     fill="#333"
     d="M253.873 255.072Q264.689 254.723 275.507 254.963C275.506 274.614 275.144 294.334 275.554 313.977C268.371 313.838 261.157 313.984 253.971 313.99C254.045 294.54 254.486 274.998 253.957 255.556L253.873 255.072Z"
     id="path49" />
  <path
     fill="#8D8A8C"
     d="M359.468 255.022Q369.99 254.73 380.513 255C403.602 255.135 426.834 254.354 449.899 255.093C454.593 260.024 458.576 265.688 462.765 271.051Q472.197 282.985 481.345 295.139C485.889 301.28 490.201 308.245 495.694 313.55Q438.354 314.091 381.012 314.033L359.552 314.012C359.628 294.612 360.355 274.968 359.572 255.598L359.468 255.022Z"
     id="path50" />
  <path
     fill="#333"
     d="M359.468 255.022Q369.99 254.73 380.513 255C380.549 274.628 380.065 294.43 381.012 314.033L359.552 314.012C359.628 294.612 360.355 274.968 359.572 255.598L359.468 255.022Z"
     id="path51" />
  <path
     fill="#cccccc"
     d="m 637.833,648.682 c 59.498,-0.83 119.081,-0.295 178.587,-0.147 4.698,0.0833 9.396,0.0737 14.094,-0.029 l -6.906,29.499 0.32591,172.26979 c -8.21314,0.33561 -68.82944,0.91739 -83.48791,0.51421 l -43.969,0.102 h -3.41 l -46.097,0.091 -4.891,0.037 c -7.06667,0.17267 -14.13433,0.24267 -21.203,0.21 l -10.01,-0.102 c -14.415,-0.496 -28.959,-0.11 -43.387,-0.122 -20.17667,-0.13 -40.35333,-0.13 -60.53,0 l -7.297,0.042 -3.504,-0.041 -60.761,-0.012 -3.87,0.046 c -2.506,-0.009 -5.01,0.114 -7.514,0.209 -6.565,0.842 -25.568,0.683 -32.449,-0.072 -7.597,-1.145 -16.544,-0.29 -24.254,-0.274 l -48.801,-0.008 -3.463,0.047 -6.497,0.058 c -13.624,0.332 -27.267,-0.012 -40.894,0.094 -9.187,0.579 -18.505,0.329 -27.71,0.384 -8.039,0.048 -16.251,0.432 -24.275,0.095 -0.347,-5.215 -0.456,-10.416 -0.54,-15.64 3.121,0.03 6.787,0.41 9.807,-0.348 l 0.59,-0.051 -0.117,-14.86 c -0.4,-8.072 -0.142,-16.252 0.016,-24.33 0.227,-4.755 0.042,-9.562 -0.003,-14.323 l -1.824,-0.088 c -2.593,-0.45 -5.376,-0.321 -8.008,-0.373 -0.035,-7.837 -0.286,-15.688 0.004,-23.521 l 9.896,-0.075 -0.01,-14.943 -9.859,0.013 -0.203,-22.146 c 3.051,0.116 6.602,0.503 9.552,-0.294 l 0.485,-0.093 c 0.161,-4.345 0.046,-8.73 0.053,-13.079 l -0.088,-2.257 -10.015,-0.058 c -1.066,-8.604 -0.395,-18.033 -0.426,-26.731 2.948,-0.051 7.109,0.555 9.87,-0.299 28.37,-0.184 56.964,-0.711 85.32,0.002 l 132.592,-0.039 48.853,-0.023 c 8.349,-0.002 16.831,-0.299 25.164,0.06 25.083,-0.449 50.23,-0.029 75.32,-0.053 l 24.291,-0.038 c 4.223,-0.004 8.896,-0.347 13.07,0.213 l -0.077,-29.219 c 2.845,0.01 5.627,0.003 8.46,-0.298 z"
     id="path54" />
  <path
     fill="#A7A6A6"
     d="M225.517 835.534Q225.464 843.413 225.27 851.289C239.235 850.93 253.708 850.283 267.645 851.094C258.458 851.673 249.14 851.423 239.935 851.478C231.896 851.526 223.684 851.91 215.66 851.573C215.313 846.358 215.204 841.157 215.12 835.933C218.241 835.963 221.907 836.343 224.927 835.585L225.517 835.534Z"
     id="path55" />
  <path
     fill="#A7A6A6"
     d="M225.446 720.501Q225.186 731.761 225.471 743.021L215.612 743.034L215.409 720.888C218.46 721.004 222.011 721.391 224.961 720.594L225.446 720.501Z"
     id="path56" />
  <path
     fill="#A7A6A6"
     d="M225.481 757.964C225.162 765.923 224.915 774.071 225.413 782.021L223.589 781.933C220.996 781.483 218.213 781.612 215.581 781.56C215.546 773.723 215.295 765.872 215.585 758.039L225.481 757.964Z"
     id="path57" />
  <path
     fill="#333"
     d="M692.958 770.478C707.143 770.857 721.423 770.529 735.618 770.541L735.62 777.683C721.418 778.045 707.159 777.905 692.949 778.041L692.958 770.478Z"
     id="path59" />
  <path
     fill="#A7A6A6"
     d="M516.769 678.077C541.852 677.628 566.999 678.048 592.089 678.024L616.38 677.986C620.603 677.982 625.276 677.639 629.45 678.199C626.528 678.739 623.465 678.526 620.502 678.502L620.494 707.652L611.324 707.659C611.393 704.049 611.702 700.242 611.378 696.654C611.504 690.622 611.351 684.56 611.308 678.526L555.185 678.463C542.487 678.487 529.407 679.141 516.769 678.077Z"
     id="path60" />
  <path
     fill="#333"
     d="M714.603 737.75Q725.367 737.547 736.13 737.796C736.018 740.215 735.881 742.626 735.932 745.049C729.268 745.239 722.585 745.184 715.917 745.22L692.896 745.199L692.968 737.956L714.603 737.75Z"
     id="path61" />
  <path
     fill="#A7A6A6"
     d="M224.84 678.077C253.21 677.893 281.804 677.366 310.16 678.079C300.439 678.734 290.522 678.36 280.771 678.404L225.531 678.517C225.528 687.249 226.18 696.498 225.411 705.165L215.396 705.107C214.33 696.503 215.001 687.074 214.97 678.376C217.918 678.325 222.079 678.931 224.84 678.077Z"
     id="path62" />
  <path
     fill="#333"
     d="M635.299 770.513C649.896 770.352 664.514 770.532 679.113 770.554L679.135 777.951L635.415 777.971L635.299 770.513Z"
     id="path65" />
  <path
     fill="#333"
     d="M635.436 737.933C650.008 737.489 664.689 737.882 679.272 737.917L679.366 745.349L635.34 745.348L635.436 737.933Z"
     id="path66" />
  <path
     fill="#333"
     d="M772.822 737.75L794.511 737.741L794.506 745.367L770.875 745.445L750.128 745.509L750.065 737.961C757.637 737.715 765.245 737.804 772.822 737.75Z"
     id="path67" />
  <path
     fill="#333"
     d="M749.997 770.561L794.834 770.415L794.732 777.979L750.055 778.258L749.997 770.561Z"
     id="path68" />
  <path
     fill="#333"
     d="M693.517 753.969C697.364 753.381 731.883 753.431 735.517 754.286L736.135 754.881C736.005 757.227 736.064 759.614 736.036 761.965L692.98 762.019C692.956 759.434 692.56 756.396 693.517 753.969Z"
     id="path69" />
  <path
     fill="#333"
     d="M750.475 754.581C752.67 753.537 790.779 753.418 793.487 754.124C793.994 754.256 794.099 754.364 794.481 754.622L794.815 755.657C794.448 757.693 794.548 759.835 794.527 761.899Q772.335 761.659 750.144 761.995C750.113 759.494 750.043 757.058 750.475 754.581Z"
     id="path70" />
  <path
     fill="#333"
     d="M635.365 754.451C637.022 753.304 674.088 753.659 678.613 754.116C678.834 754.827 678.959 755.323 679.011 756.076C679.237 758.024 679.154 760.019 679.163 761.979L635.161 761.994C635.11 759.447 635.179 756.989 635.365 754.451Z"
     id="path71" />
  <path
     fill="#333"
     d="M642.318 788.07L748.326 788.136L748.441 788.683C746.131 788.652 743.345 788.076 741.419 789.364L740.488 791.596C734.987 793.728 705.164 789.763 700.731 792.98C699.274 793.097 697.86 792.926 696.653 793.781C695.819 807.975 696.498 822.529 696.528 836.759C696.538 841.415 696.822 846.254 696.477 850.891L693.067 850.891C692.518 844.366 692.951 837.453 692.962 830.886L693.038 793.06L647.034 793.022L646.97 850.982L642.079 851.019C642.081 830.053 641.794 809.028 642.318 788.07Z"
     id="path73" />
  <path
     fill="#006C2A"
     d="M647.034 793.022L693.038 793.06L692.962 830.886C692.951 837.453 692.518 844.366 693.067 850.891L646.97 850.982L647.034 793.022Z"
     id="path74" />
  <path
     fill="#006C2A"
     d="M748.326 788.136L793.348 788.056Q792.91 819.307 792.983 850.562L792.392 850.63C791.156 850.761 789.931 850.904 788.688 850.954C772.622 850.564 756.516 851.231 740.446 850.789L696.477 850.891C696.822 846.254 696.538 841.415 696.528 836.759C696.498 822.529 695.819 807.975 696.653 793.781C697.86 792.926 699.274 793.097 700.731 792.98C705.164 789.763 734.987 793.728 740.488 791.596L741.419 789.364C743.345 788.076 746.131 788.652 748.441 788.683L748.326 788.136Z"
     id="path75" />
  <path
     fill="#333"
     d="M740.899 793.154C741.493 796.245 741.108 799.609 741.245 802.759C741.445 799.963 741.652 797.238 742.184 794.481C742.283 796.558 742.161 798.945 742.525 800.974C742.576 801.259 742.671 801.534 742.743 801.814L741.707 801.531L743.024 801.348C742.518 799.227 742.703 796.072 743.02 793.922C743.068 793.598 743.125 793.274 743.177 792.95C743.837 798.017 744.261 848.431 743.427 850.262C742.426 850.493 741.469 850.688 740.446 850.789C740.64 838.331 740.496 825.852 740.509 813.391C740.516 806.704 740.188 799.8 740.899 793.154Z"
     id="path76" />
  <path
     fill="#006C2A"
     d="M748.326 788.136L793.348 788.056Q792.91 819.307 792.983 850.562L792.392 850.63C791.156 850.761 789.931 850.904 788.688 850.954C788.423 843.041 788.554 835.116 788.612 827.2C787.834 815.993 788.474 804.3 788.489 793.048L743.177 792.95C743.125 793.274 743.068 793.598 743.02 793.922C742.703 796.072 742.518 799.227 743.024 801.348L741.707 801.531L742.743 801.814C742.671 801.534 742.576 801.259 742.525 800.974C742.161 798.945 742.283 796.558 742.184 794.481C741.652 797.238 741.445 799.963 741.245 802.759C741.108 799.609 741.493 796.245 740.899 793.154C727.509 793.061 714.12 793.253 700.731 792.98C705.164 789.763 734.987 793.728 740.488 791.596L741.419 789.364C743.345 788.076 746.131 788.652 748.441 788.683L748.326 788.136Z"
     id="path77" />
  <path
     fill="#333"
     d="M790.426 805.942C790.527 814.66 790.263 823.527 790.764 832.226C791.12 838.4 792.676 844.416 792.392 850.63C791.156 850.761 789.931 850.904 788.688 850.954C788.423 843.041 788.554 835.116 788.612 827.2C789.46 829.784 789.118 832.906 789.324 835.628C790.764 831.289 789.461 825.046 789.568 820.432C789.68 815.604 790.196 810.769 790.426 805.942Z"
     id="path78" />
  <path
     fill="#042004"
     d="M748.441 788.683L761.988 788.827C757.211 789.362 747.178 787.776 743.465 790.596L743.798 791.123C747.391 791.918 751.381 791.603 755.052 791.606C764.802 791.617 781.7 790.419 790.621 791.985L790.426 805.942C790.196 810.769 789.68 815.604 789.568 820.432C789.461 825.046 790.764 831.289 789.324 835.628C789.118 832.906 789.46 829.784 788.612 827.2C787.834 815.993 788.474 804.3 788.489 793.048L743.177 792.95C743.125 793.274 743.068 793.598 743.02 793.922C742.703 796.072 742.518 799.227 743.024 801.348L741.707 801.531L742.743 801.814C742.671 801.534 742.576 801.259 742.525 800.974C742.161 798.945 742.283 796.558 742.184 794.481C741.652 797.238 741.445 799.963 741.245 802.759C741.108 799.609 741.493 796.245 740.899 793.154C727.509 793.061 714.12 793.253 700.731 792.98C705.164 789.763 734.987 793.728 740.488 791.596L741.419 789.364C743.345 788.076 746.131 788.652 748.441 788.683Z"
     id="path79" />
  <path
     fill="#006C2A"
     d="M700.731 792.98C714.12 793.253 727.509 793.061 740.899 793.154C740.188 799.8 740.516 806.704 740.509 813.391C740.496 825.852 740.64 838.331 740.446 850.789L696.477 850.891C696.822 846.254 696.538 841.415 696.528 836.759C696.498 822.529 695.819 807.975 696.653 793.781C697.86 792.926 699.274 793.097 700.731 792.98Z"
     id="path80" />
  <path
     fill="#32B335"
     d="M637.833 648.682C697.331 647.852 756.914 648.387 816.42 648.535Q823.467 648.66 830.514 648.506L830.523 678.02L816.693 677.99L694.592 678.058C672.979 678.055 651.035 677.273 629.45 678.199L629.373 648.98C632.218 648.99 635 648.983 637.833 648.682Z"
     id="path81"
     style="fill:#006c2a;fill-opacity:1" />
  <path
     fill="#333"
     d="M424.027 732.532L506.719 732.535Q506.368 791.771 506.949 851.005L499.652 851.047L496.148 851.006L435.387 850.994L431.517 851.04C429.011 851.031 426.507 851.154 424.003 851.249C424.084 811.703 424.747 772.064 424.027 732.532Z"
     id="path82" />
  <path
     fill="#CCC"
     d="M444.64 795.514L488.963 795.493L489.011 802.95C474.291 802.79 459.561 802.904 444.84 802.922L444.64 795.514Z"
     id="path83" />
  <path
     fill="#FAFAFA"
     d="M444.633 771.199Q466.977 771.112 489.32 771.259L489.376 778.526L444.582 778.501L444.633 771.199Z"
     id="path84" />
  <path
     fill="#FAFAFA"
     d="M444.533 783.404Q466.926 783.269 489.319 783.394C489.255 786.053 489.064 788.766 489.286 791.418L444.599 791.398L444.533 783.404Z"
     id="path85" />
  <path
     fill="#333"
     d="M308.515 732.447L391.418 732.418L391.554 851.177C383.957 850.032 375.01 850.887 367.3 850.903L318.499 850.895L315.036 850.942L308.539 851C308.491 811.503 308.002 771.936 308.515 732.447Z"
     id="path86" />
  <path
     fill="#FAFAFA"
     d="M329.044 771.164C343.522 771.048 358.177 770.65 372.636 771.202L372.771 778.542L344.901 778.492C340.462 778.483 335.266 778.006 330.901 778.744L329.118 778.251C329.064 775.888 328.998 773.528 329.044 771.164Z"
     id="path87" />
  <path
     fill="#FAFAFA"
     d="M329.093 795.422C343.477 794.911 358.042 795.387 372.445 795.389L372.398 803.089Q350.85 802.915 329.302 803.156C329.14 800.586 329.146 797.997 329.093 795.422Z"
     id="path88" />
  <path
     fill="#FAFAFA"
     d="M329.016 783.421L373.041 783.51L372.804 791.051L345.372 791.089C340.628 791.1 335.587 790.761 330.884 791.282L329.175 790.752C329.119 788.31 329.037 785.864 329.016 783.421Z"
     id="path89" />
  <path
     fill="#CCC"
     d="M623.344 314.386C687.6 315.058 751.887 313.641 816.139 314.435C816.422 321.962 816.393 329.475 816.542 337.002L816.42 648.535C756.914 648.387 697.331 647.852 637.833 648.682C635 648.983 632.218 648.99 629.373 648.98L629.45 678.199C625.276 677.639 620.603 677.982 616.38 677.986L592.089 678.024C566.999 678.048 541.852 677.628 516.769 678.077C508.436 677.718 499.954 678.015 491.605 678.017L442.752 678.04L310.16 678.079C281.804 677.366 253.21 677.893 224.84 678.077C218.53 677.527 211.857 678.044 205.522 678.173L205.541 650.056L213.597 650.049C213.539 629.582 213.811 608.791 212.697 588.369C219.445 588.515 226.36 588.556 233.091 588.072C227.334 587.613 221.358 587.928 215.574 587.953L215.529 485.063L227.94 485.093C234.802 485.109 241.856 485.442 248.691 484.924C236.151 483.593 218.294 484.566 205.307 484.844L205.365 456.505C207.368 456.371 209.46 456.493 211.473 456.493L211.496 396.358L220.579 396.493L220.912 341.03L382.802 341.04L441.967 341.068C453.355 341.072 464.826 341.362 476.204 340.909L617.993 340.996L617.997 314.462L623.344 314.386Z"
     id="path90" />
  <path
     fill="#8D8A8C"
     d="M226.764 561.849C234.224 562.914 242.754 562.093 250.348 562.083L300.27 562.034Q389.416 561.682 478.56 562.379L485.036 562.506C484.291 562.651 483.553 562.89 482.815 563.075C472.116 565.754 459.168 564.485 448.151 564.473L399.881 564.566Q338.568 565.195 277.252 565.133C260.802 565.181 244.196 565.814 227.773 565.475C226.44 565.447 226.078 565.449 224.938 564.767L224.812 563.252C225.506 562.158 225.511 562.218 226.764 561.849Z"
     id="path91" />
  <path
     fill="#8D8A8C"
     d="M251.601 484.839Q263.831 484.979 276.061 484.985L242.839 519.848C238.142 524.868 233.372 531.402 227.97 535.557L227.942 511.926C229.253 506.491 246.987 489.484 251.601 484.839Z"
     id="path92" />
  <path
     fill="#333"
     d="M672.93 381.965C682.204 382.537 691.607 382.236 700.901 382.226C720.748 382.205 740.662 381.84 760.5 382.34L760.52 463.404L673.032 463.502L672.93 381.965Z"
     id="path93" />
  <path
     fill="#437FBE"
     d="M744.759 457.987C747.43 446.418 753.118 435.466 755.389 423.709Q755.546 440.847 755.451 457.986L744.759 457.987Z"
     id="path94" />
  <path
     fill="#6094C6"
     d="M750.326 388.144L755.148 388.062C756.37 391.468 755.783 418.862 755.389 423.709C753.118 435.466 747.43 446.418 744.759 457.987L742.105 458.087C736.834 457.931 731.523 458.033 726.248 458.022C726.558 452.668 731.958 440.197 733.992 434.269C739.302 418.799 743.77 403.169 750.326 388.144Z"
     id="path95" />
  <path
     fill="#6094C6"
     d="M713.697 387.839L714.794 388.341C715.67 391.364 715.587 452.528 715.011 458.352C708.138 456.954 692.992 457.939 685.53 457.939C686.185 452.935 688.642 447.109 690.17 442.263C695.902 424.084 702.766 406.247 708.536 388.082L713.697 387.839Z"
     id="path96" />
  <path
     fill="#437FBE"
     d="M719.837 387.872C729.975 388.387 740.176 388.039 750.326 388.144C743.77 403.169 739.302 418.799 733.992 434.269C731.958 440.197 726.558 452.668 726.248 458.022L719.051 458.047C719.043 451.476 718.228 391.634 719.198 388.728C719.31 388.39 719.624 388.157 719.837 387.872Z"
     id="path97" />
  <path
     fill="#437FBE"
     d="M677.607 388.064L708.536 388.082C702.766 406.247 695.902 424.084 690.17 442.263C688.642 447.109 686.185 452.935 685.53 457.939L677.871 457.978C678.085 434.686 677.5 411.367 677.607 388.064Z"
     id="path98" />
  <path
     fill="#333"
     d="M673.319 542.439L760.59 542.54C760.484 569.698 760.933 596.873 760.631 624.027L673.166 624.005Q672.887 583.22 673.319 542.439Z"
     id="path99" />
  <path
     fill="#042004"
     d="M756.216 547.894C759.179 551.23 756.949 601.247 756.494 610.269L756.223 610.4C756.326 589.567 755.703 568.732 756.216 547.894Z"
     id="path100" />
  <path
     fill="#437FBE"
     d="M745.226 618.516C746.092 614.782 748.209 610.802 749.617 607.2Q752.89 598.859 755.451 590.272L755.596 618.515L745.226 618.516Z"
     id="path101" />
  <path
     fill="#6094C6"
     d="M754.171 547.263C754.965 547.767 755.092 547.61 755.323 548.591C756.353 552.96 755.696 584.215 755.451 590.272Q752.89 598.859 749.617 607.2C748.209 610.802 746.092 614.782 745.226 618.516L726.18 618.635C728.495 611.325 749.747 550.927 752.347 548.212C752.669 547.876 753.719 547.499 754.171 547.263Z"
     id="path102" />
  <path
     fill="#437FBE"
     d="M677.571 547.721C688.295 547.939 704.891 546.553 714.705 547.893C712.148 548 709.608 548.072 707.048 548.059C704.937 558.569 700.511 568.835 696.915 578.931C693.822 587.615 691.116 596.526 687.749 605.1C686.027 609.485 682.337 614.456 681.525 618.96C680.039 618.947 679.09 619.144 677.799 618.374C676.633 610.076 677.744 600.592 677.807 592.134C677.917 577.338 677.605 562.52 677.571 547.721Z"
     id="path103" />
  <path
     fill="#437FBE"
     d="M719.026 548.018C722.783 546.573 746.982 548.475 754.171 547.263C753.719 547.499 752.669 547.876 752.347 548.212C749.747 550.927 728.495 611.325 726.18 618.635C724.454 618.713 721.48 619.208 719.956 618.293C719.153 617.812 719.27 616.836 719.103 615.98C719.693 608.61 719.142 600.813 719.121 593.4L719.026 548.018Z"
     id="path104" />
  <path
     fill="#6094C6"
     d="M707.048 548.059C709.608 548.072 712.148 548 714.705 547.893L715.402 549.167C714.942 564.458 715.247 579.82 715.229 595.121L715.221 618.902L681.525 618.96C682.337 614.456 686.027 609.485 687.749 605.1C691.116 596.526 693.822 587.615 696.915 578.931C700.511 568.835 704.937 558.569 707.048 548.059Z"
     id="path105" />
  <path
     fill="#006C2A"
     d="M211.496 396.358L220.579 396.493L605.565 396.541C605.51 416.47 604.94 436.444 605.085 456.365C599.995 456.796 594.666 456.527 589.557 456.515L561.66 456.423L473.518 456.166L295.269 456.616C267.353 456.63 239.383 456.959 211.473 456.493L211.496 396.358Z"
     id="path106" />
  <path
     fill="#042004"
     d="M348.434 408.017C350.537 408.317 352.694 408.37 354.814 408.498C356.863 409.941 359.047 408.725 360.875 409.851L350.758 409.912L350.983 435.78C359.102 435.791 368.2 434.987 376.206 435.985C381.754 437.527 389.809 436.573 395.696 436.643L396.077 435.792L396.188 436.659L397.383 436.676C393.21 437.855 383.082 436.862 377.719 437.366C379.72 438.051 382.186 437.614 384.327 437.93C379.671 438.343 374.688 438.021 369.988 438.047C362.766 438.086 355.526 438.35 348.308 438.126C347.799 428.153 348.298 418.005 348.434 408.017Z"
     id="path107" />
  <path
     fill="#333"
     d="M354.814 408.498C369.426 407.992 384.13 408.958 398.715 408.015L398.549 437.878C393.801 437.982 389.076 438.048 384.327 437.93C382.186 437.614 379.72 438.051 377.719 437.366C383.082 436.862 393.21 437.855 397.383 436.676L396.188 436.659L396.077 435.792L395.696 436.643C389.809 436.573 381.754 437.527 376.206 435.985C382.832 435.575 389.646 435.857 396.294 435.83Q396.17 422.868 396.372 409.908C384.55 409.732 372.701 409.889 360.875 409.851C359.047 408.725 356.863 409.941 354.814 408.498Z"
     id="path108" />
  <defs
     id="defs109">
    <linearGradient
       id="gradient_1"
       gradientUnits="userSpaceOnUse"
       x1="240.67668"
       y1="408.45337"
       x2="244.02696"
       y2="439.84506">
      <stop
         offset="0"
         stop-color="#002C00"
         id="stop108" />
      <stop
         offset="1"
         stop-color="#054815"
         id="stop109" />
    </linearGradient>
  </defs>
  <path
     fill="url(#gradient_1)"
     d="M220.995 407.952C231.641 408.18 242.315 408.057 252.964 408.101C258.149 408.122 263.469 407.904 268.628 408.411C266.07 408.637 256.774 408.187 255.152 409.163L255.083 409.488C244.346 409.899 233.552 409.673 222.807 409.66L222.97 435.984C229.132 435.977 262.732 436.762 266.54 435.61L266.834 435.118L267.355 435.741L268.05 435.611C268.933 431.766 268.213 427.699 268.79 423.817L268.904 423.095C269.517 427.984 269.039 433.488 269.042 438.445C252.928 439.018 236.702 438.64 220.563 438.958L220.995 407.952Z"
     id="path109" />
  <path
     fill="#90BF92"
     d="M360.875 409.851C372.701 409.889 384.55 409.732 396.372 409.908Q396.17 422.869 396.294 435.83C389.646 435.857 382.832 435.575 376.206 435.985C368.2 434.987 359.102 435.791 350.983 435.78L350.758 409.912L360.875 409.851Z"
     id="path110" />
  <path
     fill="#90BF92"
     d="M268.628 408.411C269.868 412.451 268.968 418.773 268.904 423.095L268.79 423.817C268.213 427.699 268.933 431.766 268.05 435.611L267.355 435.741L266.834 435.118L266.54 435.61C262.732 436.762 229.132 435.977 222.97 435.984L222.807 409.66C233.552 409.673 244.346 409.899 255.083 409.488L255.152 409.163C256.774 408.187 266.07 408.637 268.628 408.411Z"
     id="path111" />
  <path
     fill="#042004"
     d="M268.628 408.411C269.868 412.451 268.968 418.773 268.904 423.095L268.79 423.817C268.213 427.699 268.933 431.766 268.05 435.611L267.355 435.741L266.834 435.118C266.979 426.606 266.933 418.082 266.981 409.568Q261.031 409.683 255.083 409.488L255.152 409.163C256.774 408.187 266.07 408.637 268.628 408.411Z"
     id="path112" />
  <path
     fill="#042004"
     d="M542.513 408.141C547.969 408.732 553.866 408.355 559.378 408.369L591.566 408.392L592.228 408.979C592.725 418.607 592.373 428.453 592.264 438.1C584.924 438.03 545.173 438.885 542.503 437.537L542.513 408.141Z"
     id="path113" />
  <path
     fill="#CCC"
     d="M544.515 409.755C559.744 409.744 575.008 409.523 590.233 409.829C589.938 418.524 590.031 427.238 590.029 435.938C574.975 435.944 559.514 436.722 544.51 435.911C544.716 427.208 544.527 418.462 544.515 409.755Z"
     id="path114" />
  <path
     fill="#042004"
     d="M477.682 408.458C490.167 408.003 502.723 408.299 515.217 408.353C519.51 408.392 523.816 408.359 528.107 408.491C528.035 416.201 528.88 430.913 527.721 437.683C526.106 438.043 524.798 438.044 523.151 437.928C508.057 438.675 492.755 437.851 477.618 438.31C477.218 428.446 477.676 418.342 477.682 408.458Z"
     id="path115" />
  <path
     fill="#000700"
     d="M515.217 408.353C519.51 408.392 523.816 408.359 528.107 408.491C528.035 416.201 528.88 430.913 527.721 437.683C526.106 438.043 524.798 438.044 523.151 437.928C512.604 436.264 501.42 438.842 490.8 437.2C492.861 436.298 520.317 436.998 525.592 436.811C516.084 435.761 497.292 438.03 489.437 436.014C501.489 435.437 513.751 435.844 525.824 435.817L525.883 409.731L514.495 409.724L515.217 408.353Z"
     id="path116" />
  <path
     fill="#CCC"
     d="M514.495 409.724L525.883 409.731L525.824 435.817C513.751 435.844 501.489 435.437 489.437 436.014C486.383 435.704 483.12 435.909 480.04 435.895L480.008 409.667L514.495 409.724Z"
     id="path117" />
  <defs
     id="defs118">
    <linearGradient
       id="gradient_2"
       gradientUnits="userSpaceOnUse"
       x1="302.8436"
       y1="403.45148"
       x2="315.02414"
       y2="442.6232">
      <stop
         offset="0"
         stop-color="#010B00"
         id="stop117" />
      <stop
         offset="1"
         stop-color="#0D4119"
         id="stop118" />
    </linearGradient>
  </defs>
  <path
     fill="url(#gradient_2)"
     d="M333.135 408.273L333.536 408.265C335.107 410.076 334.471 434.428 334.366 438.378C318.177 439.238 301.789 438.51 285.558 438.831L284.58 438.47C283.112 435.586 284.193 413.312 284.022 408.345L333.135 408.273Z"
     id="path118" />
  <path
     fill="#90BF92"
     d="M287.485 409.736C302.168 409.738 316.882 409.551 331.56 409.892C332.001 418.038 332.793 427.931 331.392 435.952L286.472 436.004C286.427 428.413 285.463 417.478 286.66 410.287L287.485 409.736Z"
     id="path119" />
  <path
     fill="#333"
     d="M413.263 408.322C418.58 407.771 424.22 408.137 429.58 408.141Q446.671 408.293 463.76 407.975Q463.518 423.252 463.472 438.531C446.687 438.153 429.839 438.446 413.05 438.592C412.783 428.794 412.21 418.021 413.263 408.322Z"
     id="path120" />
  <path
     fill="#042004"
     d="M413.263 408.322C413.435 408.342 413.607 408.364 413.779 408.382C422.209 409.281 452.602 407.33 457.305 409.024L456.508 409.2L456.444 408.816L456.132 409.314C443.685 409.407 427.333 408.322 415.459 409.549C413.951 414.122 415.255 429.536 415.037 435.367L414.044 435.251C412.153 431.423 414.119 414.225 413.263 408.322Z"
     id="path121" />
  <path
     fill="#90BF92"
     d="M415.459 409.549C430.492 410.815 445.901 409.475 460.993 409.916L460.945 435.846C455.097 435.852 417.829 436.819 415.037 435.367C415.255 429.536 413.951 414.122 415.459 409.549Z"
     id="path122" />
  <path
     fill="#006C2A"
     d="M233.091 588.072L464.033 587.922C511.63 587.959 559.316 588.522 606.903 587.785C606.878 594.948 605.929 647.309 607.366 649.173C610.739 649.082 614.109 648.97 617.484 649.031L629.373 648.98L629.45 678.199C625.276 677.639 620.603 677.982 616.38 677.986L592.089 678.024C566.999 678.048 541.852 677.628 516.769 678.077C508.436 677.718 499.954 678.015 491.605 678.017L442.752 678.04L310.16 678.079C281.804 677.366 253.21 677.893 224.84 678.077C218.53 677.527 211.857 678.044 205.522 678.173L205.541 650.056L213.597 650.049C213.539 629.582 213.811 608.791 212.697 588.369C219.445 588.515 226.36 588.556 233.091 588.072Z"
     id="path123" />
  <path
     fill="#333"
     d="M286.439 628.944C286.222 628.065 286.125 627.484 286.265 626.585C289.734 627.689 327.435 627.29 333.491 626.913L334.61 629.177C318.571 628.602 302.477 629.532 286.439 628.944Z"
     id="path124" />
  <path
     fill="#333"
     d="M463.957 622.97C463.993 624.989 464.16 627.091 464.047 629.102L430.415 629.029C425.093 629.038 419.359 629.496 414.078 628.956L414.263 626.991C430.127 626.859 446.4 626.23 462.231 627.078L462.971 627.015C463.958 625.853 463.793 624.461 463.957 622.97Z"
     id="path125" />
  <path
     fill="#042004"
     d="M527.604 601.779C528.258 610.793 527.304 619.88 528.057 628.89L478.384 629.036L478.127 627.588L479.076 627.015Q494.568 626.891 510.06 626.941C515.443 626.947 521.006 626.627 526.355 627.071L526.97 627.162C528.111 624.64 527.284 606.15 527.604 601.779Z"
     id="path126" />
  <path
     fill="#000700"
     d="M541.543 601.363C548.862 599.954 557.638 600.784 565.106 600.793C574.502 600.805 584.121 600.428 593.495 601.029C593.558 608.966 593.469 616.934 593.691 624.866L593.148 626.773L592.204 627.027C590.704 619.992 591.773 609.637 591.832 602.243C575.604 601.956 558.96 601.506 542.764 602.509L541.543 601.363Z"
     id="path127" />
  <path
     fill="#000700"
     d="M477.435 601.075C483.352 600.958 525.774 600.306 527.604 601.779C527.284 606.15 528.111 624.64 526.97 627.162L526.355 627.071C525.038 619.91 526.037 609.956 526.093 602.498L479.034 602.464L479.076 627.015L478.127 627.588L478.384 629.036L477.867 628.781C476.645 625.467 477.436 606.207 477.435 601.075Z"
     id="path128" />
  <path
     fill="#042004"
     d="M593.691 624.866C593.835 626.148 593.803 627.395 593.77 628.681C588.927 629.748 549.662 629.174 542.849 628.737L543.129 628.298L542.143 628.662L542.171 628.348C541.707 628.702 541.982 628.612 541.321 628.524C540.931 627.512 541.559 604.951 541.543 601.363L542.764 602.509C543.391 610.561 542.938 618.837 542.998 626.925C559.371 626.936 575.844 626.551 592.204 627.027L593.148 626.773L593.691 624.866Z"
     id="path129" />
  <path
     fill="#042004"
     d="M348.814 600.495L399.423 600.662C399.221 606.423 400.01 624.603 398.877 628.804L398.147 629.221C396.494 624.41 398.133 611.35 397.469 605.222L397.235 603.001C394.927 601.351 356.492 602.258 350.404 602.189L350.32 618.109C349.024 621.436 350.579 625.588 350.082 629.04C348.906 628.05 348.967 627.982 348.85 626.451C348.202 617.969 348.805 609.03 348.814 600.495Z"
     id="path130" />
  <path
     fill="#042004"
     d="M284.901 600.553L335.483 600.518C335.475 605.737 336.251 625.302 335.043 628.868L334.61 629.177L333.491 626.913C333.118 618.711 333.404 610.397 333.421 602.182L286.498 602.225C286.506 610.293 286.903 618.548 286.265 626.585C286.125 627.484 286.222 628.065 286.439 628.944L285.379 628.647C283.869 624.391 285.056 606.22 284.901 600.553Z"
     id="path131" />
  <path
     fill="#000700"
     d="M412.89 600.798C429.842 600.716 447.286 599.801 464.176 600.976L463.957 622.97C463.793 624.461 463.958 625.853 462.971 627.015L462.231 627.078C460.924 619.534 461.931 610.259 461.981 602.535C446.178 602.168 430.31 602.42 414.5 602.379C414.533 610.506 415.002 618.907 414.263 626.991L414.078 628.956L413.431 628.562C411.959 626.176 412.864 605.023 412.89 600.798Z"
     id="path132" />
  <path
     fill="#CCC"
     d="M479.034 602.464L526.093 602.498C526.037 609.956 525.038 619.91 526.355 627.071C521.006 626.627 515.443 626.947 510.06 626.941Q494.568 626.891 479.076 627.015L479.034 602.464Z"
     id="path133" />
  <path
     fill="#CCC"
     d="M414.5 602.379C430.31 602.42 446.178 602.168 461.981 602.535C461.931 610.259 460.924 619.534 462.231 627.078C446.4 626.23 430.127 626.859 414.263 626.991C415.002 618.907 414.533 610.506 414.5 602.379Z"
     id="path134" />
  <path
     fill="#CCC"
     d="M286.498 602.225L333.421 602.182C333.404 610.397 333.118 618.711 333.491 626.913C327.435 627.29 289.734 627.689 286.265 626.585C286.903 618.548 286.506 610.293 286.498 602.225Z"
     id="path135" />
  <path
     fill="#CCC"
     d="M542.764 602.509C558.96 601.506 575.604 601.956 591.832 602.243C591.773 609.637 590.704 619.992 592.204 627.027C575.844 626.551 559.371 626.936 542.998 626.925C542.938 618.837 543.391 610.561 542.764 602.509Z"
     id="path136" />
  <path
     fill="#CCC"
     d="M350.404 602.189C356.492 602.258 394.927 601.351 397.235 603.001L397.469 605.222C398.133 611.35 396.494 624.41 398.147 629.221C382.379 627.887 365.942 629.339 350.082 629.04C350.579 625.588 349.024 621.436 350.32 618.109L350.404 602.189Z"
     id="path137" />
  <path
     fill="#333"
     d="M397.224 626.924C397.191 619.817 396.66 612.266 397.469 605.222C398.133 611.35 396.494 624.41 398.147 629.221C382.379 627.887 365.942 629.339 350.082 629.04C350.579 625.588 349.024 621.436 350.32 618.109L350.355 627.004L397.224 626.924Z"
     id="path138" />
  <path
     fill="#333"
     d="M235.513 600.989C247.828 600.684 260.182 600.845 272.503 600.839C272.479 605.745 272.709 610.803 272.381 615.689L272.438 629.059L225.535 629.062C225.678 626.765 225.758 624.445 226.012 622.159C225.599 615.163 225.945 607.997 225.987 600.983Q230.75 600.961 235.513 600.989Z"
     id="path139" />
  <path
     fill="#CCC"
     d="M227.504 602.069C232.497 602.713 237.713 602.477 242.743 602.487C251.829 602.504 260.933 602.372 270.016 602.537C270.009 610.674 269.69 618.944 270.101 627.064C256.163 626.518 242.094 627.707 228.174 626.863C227.356 625.726 227.532 624.976 227.456 623.619C227.736 616.467 227.508 609.23 227.504 602.069Z"
     id="path140" />
  <path
     fill="#333"
     d="M211.473 456.493C239.383 456.959 267.353 456.63 295.269 456.616L473.518 456.166L561.66 456.423L589.557 456.515C594.666 456.527 599.995 456.796 605.085 456.365C606.501 456.499 607.84 456.289 608.894 457.285C609.192 461.529 609.97 481.338 608.482 484.23L607.082 484.363L605.883 484.894C604.694 488.853 605.686 555.335 605.949 562.695L523.65 562.531C510.8 562.525 497.879 562.816 485.036 562.506L478.56 562.379Q389.416 561.682 300.27 562.034L250.348 562.083C242.754 562.093 234.224 562.914 226.764 561.849L227.709 559.111L233.309 559.033C237.709 552.921 294.769 492.623 299.086 489.889C299.138 488.291 299.4 486.652 298.612 485.202C291.432 484.2 283.344 484.95 276.061 484.985Q263.831 484.979 251.601 484.839L248.691 484.924C236.151 483.593 218.294 484.566 205.307 484.844L205.365 456.505C207.368 456.371 209.46 456.493 211.473 456.493Z"
     id="path141" />
  <path
     fill="#CCC"
     d="M538.873 484.404L551.274 484.453C547.588 488.279 543.36 493.857 538.92 496.693L538.873 484.404Z"
     id="path142" />
  <path
     fill="#CCC"
     d="M302.881 484.989L331.228 484.931C324.347 492.018 307.344 507.804 302.938 514.679C302.755 504.797 302.898 494.875 302.881 484.989Z"
     id="path143" />
  <path
     fill="#8D8A8C"
     d="M331.228 484.931Q343.389 484.714 355.552 484.865C351.539 491.137 343.731 498.061 338.532 503.624L302.98 541.911Q302.759 528.295 302.938 514.679C307.344 507.804 324.347 492.018 331.228 484.931Z"
     id="path144" />
  <path
     fill="#8D8A8C"
     d="M551.7 484.182C564.73 485.122 578.032 484.035 591.107 484.452C586.485 490.563 580.404 495.916 574.912 501.231C562.735 513.016 549.923 524.365 538.871 537.237C538.396 523.968 538.209 509.942 538.92 496.693C543.36 493.857 547.588 488.279 551.274 484.453L551.7 484.182Z"
     id="path145" />
  <path
     fill="#8D8A8C"
     d="M600.904 505.338C600.986 499.433 600.5 493.059 601.377 487.231C602.099 510.886 601.599 535.261 601.127 558.945L559.531 558.924C552.937 558.923 545.741 558.348 539.204 559.107L538.957 558.406L547.563 558.452C555.713 546.426 568.406 536.178 578.831 526.08C585.984 519.151 593.024 511.398 600.904 505.338Z"
     id="path146" />
  <path
     fill="#8D8A8C"
     d="M458.476 484.552L512.663 484.501C507.772 491.688 500.187 497.974 494.236 504.361C482.664 516.778 471.539 530.069 459.058 541.589C459.041 547.037 459.509 553.145 458.828 558.52C457.446 552.403 458.534 543.217 458.534 536.781L458.476 484.552Z"
     id="path147" />
  <path
     fill="#8D8A8C"
     d="M383.989 484.859C388.731 484.262 393.752 484.601 398.542 484.611L423.879 484.668C432.069 484.671 447.603 483.675 454.679 484.815C449.21 485.366 443.581 485.113 438.086 485.111C431.013 496.137 417.541 507.863 408.342 517.498C400.26 525.963 392.548 535.238 383.984 543.18L383.933 492.113L383.989 484.859Z"
     id="path148" />
  <path
     fill="#CCC"
     d="M383.933 492.113L383.989 484.859C386.129 485.03 388.259 485.195 390.405 485.264C388.421 487.856 386.538 490.095 383.933 492.113Z"
     id="path149" />
  <path
     fill="#CCC"
     d="M591.496 484.348C594.56 484.31 597.932 483.834 600.86 484.776C601.457 485.787 601.401 486.038 601.377 487.231C600.5 493.059 600.986 499.433 600.904 505.338C593.024 511.398 585.984 519.151 578.831 526.08C568.406 536.178 555.713 546.426 547.563 558.452L538.957 558.406C538.165 551.573 538.796 544.123 538.871 537.237C549.923 524.365 562.735 513.016 574.912 501.231C580.404 495.916 586.485 490.563 591.107 484.452L591.496 484.348Z"
     id="path150" />
  <path
     fill="#CCC"
     d="M438.086 485.111C443.581 485.113 449.21 485.366 454.679 484.815C454.283 488.896 454.436 493.03 454.474 497.127C446.403 503.708 439.72 512.509 432.756 520.227C420.997 533.26 408.948 546.329 396.217 558.415C392.235 558.433 387.904 558.104 383.977 558.703L383.984 543.18C392.548 535.238 400.26 525.963 408.342 517.498C417.541 507.863 431.013 496.137 438.086 485.111Z"
     id="path151" />
  <path
     fill="#CCC"
     d="M512.663 484.501C519.753 484.479 526.987 484.759 534.058 484.346L534.017 492.397C518.259 506.758 505.766 520.298 491.245 535.758C484.117 543.347 476.414 550.677 469.704 558.62L458.828 558.52C459.509 553.145 459.041 547.037 459.058 541.589C471.539 530.069 482.664 516.778 494.236 504.361C500.187 497.974 507.772 491.688 512.663 484.501Z"
     id="path152" />
  <path
     fill="#8D8A8C"
     d="M454.679 484.815C455.714 492.825 455.012 501.681 455.009 509.786L454.971 558.734Q429.644 559.101 404.314 558.971C397.969 558.97 390.102 559.921 383.977 558.703C387.904 558.104 392.235 558.433 396.217 558.415C408.948 546.329 420.997 533.26 432.756 520.227C439.72 512.509 446.403 503.708 454.474 497.127C454.436 493.03 454.283 488.896 454.679 484.815Z"
     id="path153" />
  <path
     fill="#CCC"
     d="M355.552 484.865L379.732 484.757C379.632 486.407 379.715 488.66 379.208 490.23C378.358 492.859 371.368 498.478 369.212 500.698C362.897 507.196 317.226 554.78 315.5 559.006L302.945 559.059L302.98 541.911L338.532 503.624C343.731 498.061 351.539 491.137 355.552 484.865Z"
     id="path154" />
  <path
     fill="#8D8A8C"
     d="M534.017 492.397L533.56 534.208C533.505 542.509 533.879 550.949 533.312 559.227C528.397 558.76 523.306 559.025 518.368 559.035L492.219 559.129C485.793 558.99 479.133 558.655 472.726 559.182L469.704 558.62C476.414 550.677 484.117 543.347 491.245 535.758C505.766 520.298 518.259 506.758 534.017 492.397Z"
     id="path155" />
  <path
     fill="#8D8A8C"
     d="M379.732 484.757C380.704 492.788 379.955 501.642 379.946 509.775L379.899 559.038L315.5 559.006C317.226 554.78 362.897 507.196 369.212 500.698C371.368 498.478 378.358 492.859 379.208 490.23C379.715 488.66 379.632 486.407 379.732 484.757Z"
     id="path156" />
  <path
     fill="#8D8A8C"
     d="M233.309 559.033C237.709 552.921 294.769 492.623 299.086 489.889C298.688 512.933 298.833 535.985 298.583 559.029C276.838 559.053 255.05 559.33 233.309 559.033Z"
     id="path157" />
</svg>
