<?xml version="1.0" encoding="UTF-8" standalone="no"?>
<!DOCTYPE svg PUBLIC "-//W3C//DTD SVG 1.1//EN" "http://www.w3.org/Graphics/SVG/1.1/DTD/svg11.dtd">
<!-- Создано Microsoft Visio, экспорт SVG door_l.svg Страница-1 -->
<svg xmlns="http://www.w3.org/2000/svg" xmlns:xlink="http://www.w3.org/1999/xlink" xmlns:ev="http://www.w3.org/2001/xml-events"
		xmlns:v="http://schemas.microsoft.com/visio/2003/SVGExtensions/" width="42.75px" height="42.75px"
		viewBox="0 0 81.2 86.2" xml:space="preserve" color-interpolation-filters="sRGB" class="st2">
	<v:documentProperties v:langID="1049" v:metric="true" v:viewMarkup="false"/>

	<style type="text/css">
	<![CDATA[
		.st1 {fill:#000000;stroke:none;stroke-linecap:butt;stroke-width:0.1}
		.st2 {fill:none;fill-rule:evenodd;font-size:12px;overflow:visible;stroke-linecap:square;stroke-miterlimit:3}
	]]>
	</style>

	<g v:mID="0" v:index="1" v:groupContext="foregroundPage">
		<title>Страница-1</title>
		<v:pageProperties v:drawingScale="1" v:pageScale="1" v:drawingUnits="19" v:shadowOffsetX="9" v:shadowOffsetY="-9"/>
		<g id="shape3-1" v:mID="3" v:groupContext="shape" transform="translate(0.1,86.3) scale(1,-1)">
			<title>Лист.3</title>
			<path d="M0 43.2 L0 0.2 L3.9 0.2 C14.5 0.2 30.6 5.1 42.5 12 C50.2 16.5 64.7 31 69.2 38.7 C76.7 51.7 81 66.6 81 79.8 L81
						 86.2 L40.5 86.2 L0 86.2 L0 43.2 ZM80 83.2 C80 81.2 79.3 81.2 40.5 81.2 C1.7 81.2 1 81.2 1 83.2 C1 85.2 1.7
						 85.2 40.5 85.2 C79.3 85.2 80 85.2 80 83.2 ZM79.7 73.5 C78.7 63.3 76.5 55.7 71.5 45.7 C63.5 29.3 51.9 17.7
						 35.5 9.7 C25.5 4.7 17.9 2.5 7.8 1.5 L1 0.9 L1 40.6 L1 80.2 L40.6 80.2 L80.3 80.2 L79.7 73.5 Z" class="st1"/>
		</g>
	</g>
</svg>
