<?xml version="1.0" encoding="UTF-8" standalone="no"?>
<!DOCTYPE svg PUBLIC "-//W3C//DTD SVG 1.1//EN" "http://www.w3.org/Graphics/SVG/1.1/DTD/svg11.dtd">
<!-- Создано Microsoft Visio, экспорт SVG doorR.svg Страница-1 -->
<svg xmlns="http://www.w3.org/2000/svg" xmlns:xlink="http://www.w3.org/1999/xlink" xmlns:ev="http://www.w3.org/2001/xml-events"
		xmlns:v="http://schemas.microsoft.com/visio/2003/SVGExtensions/" width="42.75px" height="42.75px"
		viewBox="0 0 101.9 101.55" xml:space="preserve" color-interpolation-filters="sRGB" class="st3">
	<v:documentProperties v:langID="1049" v:metric="true" v:viewMarkup="false"/>

	<style type="text/css">
	<![CDATA[
		.st1 {fill:none;stroke:none;stroke-linecap:round;stroke-linejoin:round;stroke-width:0.25}
		.st2 {fill:#000000;stroke:none;stroke-linecap:butt;stroke-width:0.0999998}
		.st3 {fill:none;fill-rule:evenodd;font-size:12px;overflow:visible;stroke-linecap:square;stroke-miterlimit:3}
	]]>
	</style>

	<g v:mID="0" v:index="1" v:groupContext="foregroundPage">
		<title>Страница-1</title>
		<v:pageProperties v:drawingScale="1" v:pageScale="1" v:drawingUnits="19" v:shadowOffsetX="9.00003"
				v:shadowOffsetY="-9.00003"/>
		<g id="shape10-1" v:mID="10" v:groupContext="shape" transform="translate(101.675,0.125) rotate(90)">
			<title>Лист.10</title>
			<rect x="0" y="0.449949" width="101.25" height="101.1" class="st1"/>
		</g>
		<g id="group16-3" transform="translate(101.85,0.199983) rotate(90)" v:mID="16" v:groupContext="group">
			<title>Лист.16</title>
			<g id="group17-4" v:mID="17" v:groupContext="group">
				<title>Страница-1</title>
			</g>
		</g>
		<g id="group19-5" transform="translate(101.85,0.199983) rotate(90)" v:mID="19" v:groupContext="group">
			<title>Лист.19</title>
			<g id="group20-6" v:mID="20" v:groupContext="group">
				<title>Страница-1</title>
				<g id="shape21-7" v:mID="21" v:groupContext="shape" transform="translate(0,101.6) scale(1,-1)">
					<title>Лист.3</title>
					<path d="M0 50.8 L0 0.05 L4.87 0.05 C18.12 0.05 38.25 5.83 53.12 13.98 C62.75 19.29 80.88 36.4 86.5 45.49 C95.87
								 60.83 101.25 78.42 101.25 94 L101.25 101.55 L50.62 101.55 L0 101.55 L0 50.8 ZM100 98.01 C100 95.65
								 99.12 95.65 50.62 95.65 C2.12 95.65 1.25 95.65 1.25 98.01 C1.25 100.37 2.12 100.37 50.62 100.37
								 C99.12 100.37 100 100.37 100 98.01 ZM99.62 86.56 C98.38 74.52 95.63 65.55 89.37 53.75 C79.37 34.39
								 64.87 20.7 44.37 11.26 C31.88 5.36 22.37 2.76 9.75 1.58 L1.25 0.88 L1.25 47.73 L1.25 94.47 L50.75
								 94.47 L100.37 94.47 L99.62 86.56 Z" class="st2"/>
				</g>
			</g>
		</g>
	</g>
</svg>
