<?xml version="1.0" encoding="UTF-8" standalone="no"?>
<!DOCTYPE svg PUBLIC "-//W3C//DTD SVG 1.1//EN" "http://www.w3.org/Graphics/SVG/1.1/DTD/svg11.dtd">
<!-- Создано Microsoft Visio, экспорт SVG doorD.svg Страница-1 -->
<svg xmlns="http://www.w3.org/2000/svg" xmlns:xlink="http://www.w3.org/1999/xlink" xmlns:ev="http://www.w3.org/2001/xml-events"
		xmlns:v="http://schemas.microsoft.com/visio/2003/SVGExtensions/" width="42.75px" height="42.75px"
		viewBox="0 0 101.55 101.9" xml:space="preserve" color-interpolation-filters="sRGB" class="st3">
	<v:documentProperties v:langID="1049" v:metric="true" v:viewMarkup="false"/>

	<style type="text/css">
	<![CDATA[
		.st1 {fill:none;stroke:none;stroke-linecap:round;stroke-linejoin:round;stroke-width:0.25}
		.st2 {fill:#000000;stroke:none;stroke-linecap:butt;stroke-width:0.0999998}
		.st3 {fill:none;fill-rule:evenodd;font-size:12px;overflow:visible;stroke-linecap:square;stroke-miterlimit:3}
	]]>
	</style>

	<g v:mID="0" v:index="1" v:groupContext="foregroundPage">
		<title>Страница-1</title>
		<v:pageProperties v:drawingScale="1" v:pageScale="1" v:drawingUnits="19" v:shadowOffsetX="9.00003"
				v:shadowOffsetY="-9.00003"/>
		<g id="shape10-1" v:mID="10" v:groupContext="shape" transform="translate(101.425,102.025) rotate(180)">
			<title>Лист.10</title>
			<rect x="0" y="0.799586" width="101.25" height="101.1" class="st1"/>
		</g>
		<g id="group16-3" transform="translate(101.35,102.199) rotate(180)" v:mID="16" v:groupContext="group">
			<title>Лист.16</title>
			<g id="group17-4" v:mID="17" v:groupContext="group">
				<title>Страница-1</title>
			</g>
		</g>
		<g id="group19-5" transform="translate(101.35,102.199) rotate(180)" v:mID="19" v:groupContext="group">
			<title>Лист.19</title>
			<g id="group20-6" v:mID="20" v:groupContext="group">
				<title>Страница-1</title>
				<g id="shape21-7" v:mID="21" v:groupContext="shape" transform="translate(0,102.299) scale(1,-1)">
					<title>Лист.3</title>
					<path d="M0 51.15 L0 0.4 L4.87 0.4 C18.12 0.4 38.25 6.18 53.12 14.33 C62.75 19.64 80.88 36.75 86.5 45.84 C95.87
								 61.18 101.25 78.77 101.25 94.35 L101.25 101.9 L50.62 101.9 L0 101.9 L0 51.15 ZM100 98.36 C100 96
								 99.12 96 50.62 96 C2.12 96 1.25 96 1.25 98.36 C1.25 100.72 2.12 100.72 50.62 100.72 C99.12 100.72
								 100 100.72 100 98.36 ZM99.62 86.91 C98.38 74.87 95.63 65.9 89.37 54.1 C79.37 34.74 64.87 21.05 44.37
								 11.61 C31.88 5.71 22.37 3.11 9.75 1.93 L1.25 1.23 L1.25 48.08 L1.25 94.82 L50.75 94.82 L100.37 94.82
								 L99.62 86.91 Z" class="st2"/>
				</g>
			</g>
		</g>
	</g>
</svg>
