<?xml version="1.0" encoding="UTF-8" standalone="no"?>
<!DOCTYPE svg PUBLIC "-//W3C//DTD SVG 1.1//EN" "http://www.w3.org/Graphics/SVG/1.1/DTD/svg11.dtd">
<!-- Создано Microsoft Visio, экспорт SVG door_r.svg Страница-1 -->
<svg xmlns="http://www.w3.org/2000/svg" xmlns:xlink="http://www.w3.org/1999/xlink" xmlns:ev="http://www.w3.org/2001/xml-events"
		xmlns:v="http://schemas.microsoft.com/visio/2003/SVGExtensions/" width="42.75px" height="42.75px"
		viewBox="0 0 81.2 86.7" xml:space="preserve" color-interpolation-filters="sRGB" class="st2">
	<v:documentProperties v:langID="1049" v:metric="true" v:viewMarkup="false"/>

	<style type="text/css">
	<![CDATA[
		.st1 {fill:#000000;stroke:none;stroke-linecap:butt;stroke-width:0.1}
		.st2 {fill:none;fill-rule:evenodd;font-size:12px;overflow:visible;stroke-linecap:square;stroke-miterlimit:3}
	]]>
	</style>

	<g v:mID="0" v:index="1" v:groupContext="foregroundPage">
		<title>Страница-1</title>
		<v:pageProperties v:drawingScale="1" v:pageScale="1" v:drawingUnits="19" v:shadowOffsetX="9" v:shadowOffsetY="-9"/>
		<g id="shape2-1" v:mID="2" v:groupContext="shape" transform="translate(0.1,86.8) scale(1,-1)">
			<title>Лист.2</title>
			<path d="M0 80.3 C0 67.1 4.3 52.2 11.8 39.2 C16.3 31.5 30.8 17 38.5 12.5 C50.6 5.5 68.7 0.1 77.2 0.9 L80.5 1.2 L80.8
						 44 L81 86.7 L40.5 86.7 L0 86.7 L0 80.3 ZM80 83.7 C80 81.7 79.3 81.7 40.5 81.7 C1.7 81.7 1 81.7 1 83.7 C1
						 85.7 1.7 85.7 40.5 85.7 C79.3 85.7 80 85.7 80 83.7 ZM80 41.1 L80 1.4 L73.3 2 C63.1 3 55.5 5.2 45.5 10.2
						 C29.1 18.2 17.5 29.8 9.5 46.2 C4.5 56.2 2.3 63.8 1.3 74 L0.7 80.7 L40.4 80.7 L80 80.7 L80 41.1 Z"
					class="st1"/>
		</g>
	</g>
</svg>
