<?xml version="1.0" encoding="UTF-8" standalone="no"?>
<svg
   width="1024"
   height="1024"
   version="1.1"
   id="svgOutside"
   xmlns="http://www.w3.org/2000/svg"
   xmlns:svg="http://www.w3.org/2000/svg">
  <path
     fill="#97947E"
     d="M821.2 665.606C840.306 675.674 860.734 683.85 880.417 692.773C887.576 696.019 895.224 699.013 902.043 702.897L726.618 780.109C723.972 781.371 721.327 782.801 718.526 783.679C713.338 783.722 703.71 788.262 698.188 789.807C685.598 793.329 641.311 802.571 629.923 801.847L630.122 800.876C692.881 771.44 757.598 746.691 821.023 718.82L821.2 665.606Z"
     id="path33" />
  <path
     fill="#CCC"
     d="M198.12 653.945C207.697 649.997 217.118 645.635 226.577 641.412C227.084 655.92 226.775 670.515 226.691 685.033L328.062 731.234C337.022 735.281 346.074 739.136 354.955 743.353C360.557 746.013 365.997 749.022 371.626 751.616C376.674 753.943 382.225 755.653 387.126 758.211C395.474 760.88 403.564 765.115 411.503 768.827C419.243 772.446 427.081 775.86 434.787 779.547C439.95 782.018 445.089 784.895 450.467 786.831L451.224 786.387C451.51 784.911 451.558 783.627 451.507 782.126L451.821 782.489C453.868 782.839 468.502 776.961 471.555 775.965C476.259 777.92 509.144 792.156 511.441 791.94L520.538 788.446C530.442 784.834 541.082 781.634 550.499 776.945C551.829 776.523 553.165 776.17 554.372 775.451L555.1 773.763C559.271 772.251 566.013 777.183 570.275 778.174C590.329 785.552 610.028 794.04 629.923 801.847C641.311 802.571 685.598 793.329 698.188 789.807C703.71 788.262 713.338 783.722 718.526 783.679C688.117 797.032 658.26 811.535 628.141 825.511L591.244 842.49C586.771 844.563 582.075 846.368 577.699 848.616C567.776 842.856 557.006 838.404 546.587 833.63C531.766 826.84 517.018 819.961 502.108 813.363C490.223 808.102 478.688 802.13 466.842 796.799C439.765 784.611 412.362 772.958 385.607 760.066C376.468 756.66 367.481 752.101 358.617 748.001C341.22 739.954 323.878 731.681 306.326 723.985C283.803 714.11 261.504 703.683 238.918 693.97C223.856 687.492 208.836 681.014 193.917 674.209C187.119 671.109 180.128 668.189 173.561 664.632C181.537 660.704 190.023 657.653 198.12 653.945Z"
     id="path42" />
  <path
     fill="#333"
     d="M440.347 278.016C454.018 272.298 467.911 267.033 481.443 261C508.597 274.33 536.158 286.528 563.559 299.3L710.967 369.285C728.85 377.975 747.097 385.835 764.928 394.637C769.897 397.09 775.552 399.193 780.25 402.033C781.076 402.704 780.933 402.852 781.012 403.867C781.479 409.861 781.042 416.215 781.05 422.244L781.332 456.34L781.472 586.449C787.434 589.963 823.128 604.884 824.904 608.246C824.158 609.051 823.316 609.49 822.189 609.602C821.938 609.627 821.684 609.601 821.432 609.6C821.414 611.592 821.295 613.635 821.392 615.621Q821.445 632.331 821.081 649.037C821.01 654.137 820.288 660.604 821.2 665.606L821.023 718.82C757.598 746.691 692.881 771.44 630.122 800.876C629.156 780.583 629.964 759.832 629.967 739.506C629.97 723.17 629.056 703.777 630.196 687.721C627.629 685.741 613.726 680.98 609.672 679.282L572.598 663.61C566.533 661.064 560.436 658.134 554.202 656.081C552.843 654.153 553.436 648.38 553.437 645.916Q585.184 633.633 616.757 620.91C627.042 616.761 638.231 613.201 647.931 607.902C645.806 603.101 647.573 487.89 647.261 473.892L645.31 472.729L644.776 472.69L644.084 473.632C641.618 472.715 638.999 472.18 636.508 471.221C622.952 466 609.616 459.581 596.534 453.265C581.548 447.132 566.892 440.101 552.176 433.351L513.893 416.082C498.569 408.321 482.54 401.686 467.028 394.26C462.779 392.361 453.447 389.3 451.383 385.266L450.617 384.935C443.741 382.51 437.399 379.212 431.049 375.674Q431.042 371.733 430.929 367.793C429.547 361.959 430.474 350.899 430.477 344.595L430.73 286.479C430.576 284.833 430.597 283.13 430.535 281.474C433.882 280.562 437.107 279.244 440.347 278.016Z"
     id="path43" />
  <path
     fill="#006C2A"
     d="M440.347 278.016C454.018 272.298 467.911 267.033 481.443 261C508.597 274.33 536.158 286.528 563.559 299.3L710.967 369.285C728.85 377.975 747.097 385.835 764.928 394.637C769.897 397.09 775.552 399.193 780.25 402.033C774.397 404.808 742.721 415.981 737.727 416.151C736.971 421.516 737.261 427.215 737.19 432.634C730.791 429.447 724.084 426.718 717.578 423.74L676.426 404.608L521.268 330.759L461.319 301.655C451.248 296.744 440.214 292.384 430.73 286.479C430.576 284.833 430.597 283.13 430.535 281.474C433.882 280.562 437.107 279.244 440.347 278.016Z"
     id="path44" />
  <path
     fill="#FBFAFA"
     d="M451.652 320.433L630.088 403.685L698.798 435.343C706.717 438.995 719.18 443.496 726.3 447.715L737.061 452.868L736.927 487.286C736.04 497.379 736.5 507.849 736.488 517.983L736.525 574.605C732.859 576 729.136 577.314 725.512 578.811C721.027 579.927 716.951 582.261 712.52 583.427L709.465 584.44L708.723 584.638C707.226 585.334 705.857 585.895 704.252 586.29C699.242 588.487 694.07 590.333 688.954 592.266L685.012 593.894C682.715 594.648 680.42 595.489 678.06 596.02C676.504 596.788 674.773 597.85 672.975 597.698C671.159 597.546 670.221 596.513 669.022 595.27C668.986 597.105 669.353 598.217 667.957 599.592C665.908 601.611 661.26 602.537 658.541 603.409C655.314 605.453 651.356 606.209 647.931 607.902C645.806 603.101 647.573 487.89 647.261 473.892L645.31 472.729L644.776 472.69L644.084 473.632C641.618 472.715 638.999 472.18 636.508 471.221C622.952 466 609.616 459.581 596.534 453.265C581.548 447.132 566.892 440.101 552.176 433.351L513.893 416.082C498.569 408.321 482.54 401.686 467.028 394.26C462.779 392.361 453.447 389.3 451.383 385.266C452.234 378.051 451.681 370.269 451.661 362.982Q451.525 341.708 451.652 320.433Z"
     id="path45" />
  <path
     fill="#333"
     d="M658.921 537.422C660.872 553.202 657.924 569.601 659.114 585.454C662.134 588.263 664.274 590.071 668.249 591.434L669.022 595.27C668.986 597.105 669.353 598.217 667.957 599.592C665.908 601.611 661.26 602.537 658.541 603.409C658.376 591.039 658.528 578.647 658.536 566.275C658.542 556.688 658.279 546.987 658.921 537.422Z"
     id="path46" />
  <path
     fill="#96979C"
     d="M726.3 447.715L737.061 452.868L736.927 487.286C736.04 497.379 736.5 507.849 736.488 517.983L736.525 574.605C732.859 576 729.136 577.314 725.512 578.811C726.788 563.67 725.9 547.774 725.922 532.536L726.3 447.715Z"
     id="path47" />
  <path
     fill="#006C2A"
     d="M530.955 368.677C539.668 371.48 548.09 375.964 556.393 379.788C564.165 383.368 572.051 386.556 579.956 389.82L580.001 443.408C563.787 435.495 546.914 428.862 530.657 421.001C531.235 414.457 530.981 407.706 530.983 401.135L530.955 368.677Z"
     id="path48" />
  <path
     fill="#20A75F"
     d="M536.48 399.315C541.746 401.827 546.987 404.32 552.074 407.182L552.033 424.359C546.782 422.589 541.645 420.002 536.431 418.035L536.48 399.315Z"
     id="path49" />
  <path
     fill="#20A75F"
     d="M536.426 374.09C541.751 375.74 546.931 378.714 551.934 381.169C551.76 388.054 551.95 394.987 551.973 401.876C546.663 400.108 541.497 397.194 536.443 394.783L536.426 374.09Z"
     id="path50" />
  <path
     fill="#20A75F"
     d="M556.9 408.742C562.933 411.873 569.314 414.444 575.41 417.475C575.187 423.052 575.151 428.647 575.042 434.228C571.872 434.267 560.493 428.561 556.98 427.035C556.762 420.946 556.881 414.835 556.9 408.742Z"
     id="path51" />
  <path
     fill="#20A75F"
     d="M556.448 383.599C562.753 386.458 569.191 389.682 575.761 391.849L575.598 411.429L575.262 411.739C571.655 411.526 560.985 405.814 556.593 404.134L556.448 383.599Z"
     id="path52" />
  <path
     fill="#006C2A"
     d="M591.449 394.17C604.257 402.055 619.131 407.563 632.826 413.893C637.022 415.832 641.519 417.686 645.488 420.054L645.541 455.248C645.551 460.769 646.221 467.318 645.31 472.729L644.776 472.69L644.084 473.632C641.618 472.715 638.999 472.18 636.508 471.221C622.952 466 609.616 459.581 596.534 453.265L597.087 452.401C595.674 450.457 592.662 450.744 591.358 448.563L591.449 394.17Z"
     id="path53" />
  <path
     fill="#FEF7FD"
     d="M591.358 448.563C597.256 450.092 603.638 453.934 609.253 456.499Q627.068 464.476 644.776 472.69L644.084 473.632C641.618 472.715 638.999 472.18 636.508 471.221C622.952 466 609.616 459.581 596.534 453.265L597.087 452.401C595.674 450.457 592.662 450.744 591.358 448.563Z"
     id="path54" />
  <path
     fill="#20A75F"
     d="M620.996 437.833Q630.856 442.046 640.529 446.674L640.409 464.819Q630.794 460.341 621.019 456.223L620.996 437.833Z"
     id="path55" />
  <path
     fill="#20A75F"
     d="M596.662 426.156C603.143 429.457 609.828 432.376 616.451 435.381C616.457 441.505 616.605 447.66 616.185 453.772C609.88 450.414 603.153 447.937 596.819 444.611Q596.614 435.384 596.662 426.156Z"
     id="path56" />
  <path
     fill="#20A75F"
     d="M621.04 412.122C627.683 415.117 634.371 418.076 640.76 421.587Q640.938 431.671 640.738 441.755C636.229 441.365 625.598 434.799 621.015 432.311L621.04 412.122Z"
     id="path57" />
  <path
     fill="#20A75F"
     d="M596.301 400.662Q606.431 405.395 616.469 410.318Q616.536 420.641 616.371 430.963C609.675 428.565 602.577 424.479 596.405 420.928Q596.409 410.795 596.301 400.662Z"
     id="path58" />
  <path
     fill="#006C2A"
     d="M462 390.249C462.001 384.073 461.439 338.017 461.949 336.514C462.062 336.18 462.341 335.929 462.538 335.637C464.638 335.636 466.973 337.47 468.828 338.494L468.666 338.968L468.474 339.523C474.65 340.894 481.293 344.652 487.052 347.337Q503.169 354.171 518.468 362.678C518.497 370.751 519.526 411.832 518.445 415.431C517.287 415.344 517.744 415.497 517.025 415.164L513.893 416.082C498.569 408.321 482.54 401.686 467.028 394.26L467.618 393.323C466.205 391.819 463.868 391.079 462 390.249Z"
     id="path59" />
  <path
     fill="#FEF7FD"
     d="M462 390.249C462.001 384.073 461.439 338.017 461.949 336.514C462.062 336.18 462.341 335.929 462.538 335.637C464.638 335.636 466.973 337.47 468.828 338.494L468.666 338.968C466.586 338.339 464.814 337.415 462.917 336.367L462.892 389.646C480.592 398.799 499.248 406.101 517.025 415.164L513.893 416.082C498.569 408.321 482.54 401.686 467.028 394.26L467.618 393.323C466.205 391.819 463.868 391.079 462 390.249Z"
     id="path60" />
  <path
     fill="#20A75F"
     d="M469.509 367.388Q478.791 371.626 488.016 375.985L488.01 395.293C482.154 391.99 475.666 389.421 469.536 386.644L469.509 367.388Z"
     id="path61" />
  <path
     fill="#20A75F"
     d="M492.597 378.118C498.455 380.757 505.722 383.571 510.884 387.372L510.903 406.402C504.732 403.835 498.687 400.444 492.624 397.575C492.421 391.109 492.591 384.589 492.597 378.118Z"
     id="path62" />
  <path
     fill="#20A75F"
     d="M492.841 353.608Q502.02 357.867 510.911 362.697C511.13 369.055 510.954 375.475 510.951 381.84C504.863 379.584 498.916 376.639 492.986 373.983C492.648 367.22 492.835 360.382 492.841 353.608Z"
     id="path63" />
  <path
     fill="#20A75F"
     d="M469.418 342.86C474.938 345.707 481.66 350.08 487.65 351.356C487.316 357.905 487.626 364.581 487.877 371.131C481.639 368.351 475.423 365.497 469.088 362.944C468.965 356.858 467.962 348.706 469.418 342.86Z"
     id="path64" />
  <path
     fill="#006C2A"
     d="M658.466 428.929C674.963 437.409 695.171 446.978 712.497 453.35L712.501 537.105L712.488 558.127L712.52 583.427L709.465 584.44L708.723 584.638C707.226 585.334 705.857 585.895 704.252 586.29C699.242 588.487 694.07 590.333 688.954 592.266L685.012 593.894C682.715 594.648 680.42 595.489 678.06 596.02C676.504 596.788 674.773 597.85 672.975 597.698C671.159 597.546 670.221 596.513 669.022 595.27L668.249 591.434C664.274 590.071 662.134 588.263 659.114 585.454C657.924 569.601 660.872 553.202 658.921 537.422C658.454 534.034 658.771 530.253 658.774 526.824L658.755 506.607Q658.399 467.769 658.466 428.929Z"
     id="path65" />
  <path
     fill="#20A75F"
     d="M688.955 579.536Q696.627 582.861 704.252 586.29C699.242 588.487 694.07 590.333 688.954 592.266C688.768 588.033 688.91 583.772 688.955 579.536Z"
     id="path66" />
  <path
     fill="#20A75F"
     d="M668.634 569.35C674.002 572.251 679.477 574.885 684.903 577.666C684.937 583.073 684.907 588.489 685.012 593.894C682.715 594.648 680.42 595.489 678.06 596.02C675.123 593.887 671.834 592.426 668.575 590.862Q668.791 580.106 668.634 569.35Z"
     id="path67" />
  <path
     fill="#20A75F"
     d="M668.88 490.64C674.323 493.019 679.703 495.566 685.102 498.044Q685.148 508.905 685.052 519.766C679.49 517.447 674.096 514.707 668.706 512.018L668.88 490.64Z"
     id="path68" />
  <path
     fill="#20A75F"
     d="M668.558 543.155C674.091 545.583 679.668 548.071 685.02 550.875L684.975 572.908C679.445 570.631 674.007 567.737 668.667 565.037Q668.813 554.095 668.558 543.155Z"
     id="path69" />
  <path
     fill="#20A75F"
     d="M668.458 463.707L685.237 471.5Q685.242 482.137 685.087 492.773C682.596 492.807 671.551 487.4 668.52 486.189L668.458 463.707Z"
     id="path70" />
  <path
     fill="#20A75F"
     d="M668.576 516.78Q676.852 520.635 685.222 524.279C685.458 531.508 685.6 539.007 685.119 546.219C682.247 546.144 671.581 540.122 668.404 538.568C668.582 531.312 668.53 524.038 668.576 516.78Z"
     id="path71" />
  <path
     fill="#20A75F"
     d="M668.543 437.401L685.68 445.31L685.537 467.165C679.746 464.965 674.223 461.922 668.463 459.583L668.543 437.401Z"
     id="path72" />
  <path
     fill="#20A75F"
     d="M690.007 447.713C696.4 450.843 702.979 453.653 709.472 456.575C709.704 463.455 709.756 470.532 709.29 477.399C706.65 477.811 693.529 470.926 690.032 469.557L690.007 447.713Z"
     id="path73" />
  <path
     fill="#20A75F"
     d="M689.931 473.147C696.361 476.32 703.284 479.346 709.195 483.405C709.761 490.654 709.496 498.072 709.488 505.346C702.867 502.727 696.28 498.491 689.9 495.22L689.931 473.147Z"
     id="path74" />
  <path
     fill="#20A75F"
     d="M689.131 552.639C695.952 555.976 702.971 559.183 709.29 563.414C709.451 570.422 709.219 577.421 709.465 584.44L708.723 584.638C702.499 580.931 695.533 578.293 689.059 575.011L689.131 552.639Z"
     id="path75" />
  <path
     fill="#20A75F"
     d="M689.458 526.051C696.225 529.168 703.059 532.164 709.431 536.047C709.38 543.367 709.7 550.902 709.157 558.192C702.72 554.696 695.934 551.46 689.209 548.557C689.479 541.066 689.41 533.546 689.458 526.051Z"
     id="path76" />
  <path
     fill="#20A75F"
     d="M689.508 499.793C696.358 502.517 703.762 506.079 709.972 510.041C710.313 517.428 710.148 524.859 710.002 532.249C703.35 528.503 696.353 525.266 689.482 521.943L689.508 499.793Z"
     id="path77" />
  <path
     fill="#333"
     d="M736.525 574.605L736.488 517.983C736.5 507.849 736.04 497.379 736.927 487.286C737.896 515.906 736.981 545.753 737.013 574.541C740.411 573.11 743.796 571.603 747.233 570.273Q759.659 576.474 772.236 582.364C775.107 583.7 778.448 585.683 781.472 586.449C787.434 589.963 823.128 604.884 824.904 608.246C824.158 609.051 823.316 609.49 822.189 609.602C821.938 609.627 821.684 609.601 821.432 609.6C821.414 611.592 821.295 613.635 821.392 615.621Q821.445 632.331 821.081 649.037C821.01 654.137 820.288 660.604 821.2 665.606L821.023 718.82C757.598 746.691 692.881 771.44 630.122 800.876C629.156 780.583 629.964 759.832 629.967 739.506C629.97 723.17 629.056 703.777 630.196 687.721C627.629 685.741 613.726 680.98 609.672 679.282L572.598 663.61C566.533 661.064 560.436 658.134 554.202 656.081C552.843 654.153 553.436 648.38 553.437 645.916Q585.184 633.633 616.757 620.91C627.042 616.761 638.231 613.201 647.931 607.902C651.356 606.209 655.314 605.453 658.541 603.409C661.26 602.537 665.908 601.611 667.957 599.592C669.353 598.217 668.986 597.105 669.022 595.27C670.221 596.513 671.159 597.546 672.975 597.698C674.773 597.85 676.504 596.788 678.06 596.02C680.42 595.489 682.715 594.648 685.012 593.894L688.954 592.266C694.07 590.333 699.242 588.487 704.252 586.29C705.857 585.895 707.226 585.334 708.723 584.638L709.465 584.44L712.52 583.427C716.951 582.261 721.027 579.927 725.512 578.811C729.136 577.314 732.859 576 736.525 574.605Z"
     id="path78" />
  <path
     fill="#4D5D6B"
     d="M736.525 574.605L736.488 517.983C736.5 507.849 736.04 497.379 736.927 487.286C737.896 515.906 736.981 545.753 737.013 574.541C740.411 573.11 743.796 571.603 747.233 570.273Q759.659 576.474 772.236 582.364C775.107 583.7 778.448 585.683 781.472 586.449C787.434 589.963 823.128 604.884 824.904 608.246C824.158 609.051 823.316 609.49 822.189 609.602C821.938 609.627 821.684 609.601 821.432 609.6C815.434 611.197 809.368 614.24 803.581 616.593C788.702 622.644 774.044 629.164 759.251 635.41C727.091 648.989 694.373 661.318 662.131 674.723C656.039 677.256 635.008 687.563 630.196 687.721C627.629 685.741 613.726 680.98 609.672 679.282L572.598 663.61C566.533 661.064 560.436 658.134 554.202 656.081C552.843 654.153 553.436 648.38 553.437 645.916Q585.184 633.633 616.757 620.91C627.042 616.761 638.231 613.201 647.931 607.902C651.356 606.209 655.314 605.453 658.541 603.409C661.26 602.537 665.908 601.611 667.957 599.592C669.353 598.217 668.986 597.105 669.022 595.27C670.221 596.513 671.159 597.546 672.975 597.698C674.773 597.85 676.504 596.788 678.06 596.02C680.42 595.489 682.715 594.648 685.012 593.894L688.954 592.266C694.07 590.333 699.242 588.487 704.252 586.29C705.857 585.895 707.226 585.334 708.723 584.638L709.465 584.44L712.52 583.427C716.951 582.261 721.027 579.927 725.512 578.811C729.136 577.314 732.859 576 736.525 574.605Z"
     id="path79" />
  <path
     fill="#333"
     d="M566.015 648.802C609.61 631.815 652.694 613.512 696.309 596.608C709.636 591.443 722.907 585.359 736.462 580.87C738.722 580.122 741.156 579.36 743.54 579.763L744.072 580.631C743.231 582.445 741.957 583.184 740.341 584.289L707.418 597.181C705.938 597.702 704.382 598.167 702.945 598.788C692.82 603.045 682.608 607.343 672.324 611.191C670.924 611.749 669.439 612.255 668.091 612.922C658.886 616.706 649.574 620.312 640.463 624.313C638.485 625.061 636.498 625.784 634.563 626.639C625.017 630.516 615.411 634.306 605.952 638.392C604.172 639.161 602.238 639.845 600.551 640.789Q586.907 646.051 573.39 651.63C570.894 652.1 568.131 649.992 566.015 648.802Z"
     id="path80" />
  <path
     fill="#CCC"
     d="M600.551 640.789C607.026 644.631 614.31 647.402 621.168 650.525Q640.685 659.334 659.986 668.605C653.628 671.552 646.868 673.843 640.312 676.325C627.153 672.92 614.357 667.099 601.644 662.319C592.392 658.841 582.238 655.981 573.39 651.63Q586.907 646.051 600.551 640.789Z"
     id="path81" />
  <path
     fill="#CCC"
     d="M702.945 598.788C710.668 605.962 748.312 621.826 760.393 627.109C751.817 630.961 742.87 635.04 733.958 638.053C727.5 634.568 720.434 631.835 713.713 628.899L681.931 615.047C678.766 613.691 675.424 612.653 672.324 611.191C682.608 607.343 692.82 603.045 702.945 598.788Z"
     id="path82" />
  <path
     fill="#CCC"
     d="M668.091 612.922C687.048 623.767 707.829 632.209 727.983 640.632C718.903 644.527 709.362 649.303 699.909 652.034C680.641 641.774 659.762 634.621 640.463 624.313C649.574 620.312 658.886 616.706 668.091 612.922Z"
     id="path83" />
  <path
     fill="#CCC"
     d="M634.563 626.639C639.269 629.952 645.194 632.222 650.397 634.683Q664.422 641.425 678.665 647.693C683.692 649.861 689.212 651.718 693.894 654.555C686.475 657.57 673.058 664.117 666.034 665.957C652.508 658.091 637.347 651.962 622.96 645.804C617.375 643.413 611.231 641.348 605.952 638.392C615.411 634.306 625.017 630.516 634.563 626.639Z"
     id="path84" />
  <path
     fill="#CCC"
     d="M740.341 584.289C752.206 590.502 764.521 596.02 776.678 601.635C783.874 604.958 791.155 608.778 798.542 611.623C788.555 616.683 777.535 620.33 767.066 624.288C758.251 619.159 747.576 615.615 738.203 611.478C727.857 606.912 717.804 601.616 707.418 597.181L740.341 584.289Z"
     id="path85" />
  <path
     fill="#fbfafa"
     d="m 346.525,398.876 61.696,-23.215 c 6.86,-2.524 15.348,-6.681 22.375,-7.828 l 0.333,-0.04 c 0.0753,2.62667 0.11533,5.25367 0.12,7.881 6.35,3.538 12.692,6.836 19.568,9.261 l 0.766,0.331 c 2.064,4.034 11.396,7.095 15.645,8.994 15.512,7.426 31.541,14.061 46.865,21.822 l 38.283,17.269 c 14.716,6.75 29.372,13.781 44.358,19.914 13.082,6.316 26.418,12.735 39.974,17.956 2.491,0.959 5.11,1.494 7.576,2.411 l 0.692,-0.942 0.534,0.039 1.951,1.163 c 0.312,13.998 -1.455,129.209 0.67,134.01 -9.7,5.299 -20.889,8.859 -31.174,13.008 -21.04867,8.482 -42.15533,16.81733 -63.32,25.006 -10e-4,2.464 -0.594,8.237 0.765,10.165 6.234,2.053 12.331,4.983 18.396,7.529 l 37.074,15.672 c 4.054,1.698 17.957,6.459 20.524,8.439 -1.14,16.056 -0.226,35.449 -0.229,51.785 -0.003,20.326 -0.811,41.077 0.155,61.37 l -0.199,0.971 c -19.895,-7.807 -39.594,-16.295 -59.648,-23.673 -4.262,-0.991 -11.004,-5.923 -15.175,-4.411 l -0.728,1.688 c -1.207,0.719 -2.543,1.072 -3.873,1.494 -9.417,4.689 -20.057,7.889 -29.961,11.501 l -9.097,3.494 c -2.297,0.216 -35.182,-14.02 -39.886,-15.975 -3.053,0.996 -17.687,6.874 -19.734,6.524 l -0.314,-0.363 c 0.051,1.501 0.003,2.785 -0.283,4.261 l -0.757,0.444 c -5.378,-1.936 -10.517,-4.813 -15.68,-7.284 -7.706,-3.687 -15.544,-7.101 -23.284,-10.72 -7.939,-3.712 -16.029,-7.947 -24.377,-10.616 -4.901,-2.558 -10.452,-4.268 -15.5,-6.595 -5.629,-2.594 -11.069,-5.603 -16.671,-8.263 -8.881,-4.217 -17.933,-8.072 -26.893,-12.119 L 226.691,685.033 c 0.084,-14.518 0.393,-29.113 -0.114,-43.621 l -0.039,-4.963 c -0.0507,-7.78267 -0.002,-15.56433 0.147,-23.345 0.828,-6.211 0.311,-13.155 0.32,-19.453 l -0.018,-38.37 -0.338,-118.142 c 38.77843,-16.58381 79.28627,-27.24653 119.876,-38.263 z"
     id="path86" />
  <path
     fill="#4D5D6B"
     d="M245.452 619.654C258.582 625.637 272.375 630.741 285.715 636.305C285.27 643.295 285.528 650.432 285.534 657.44L285.595 693.909C281.064 692.447 276.562 690.218 272.192 688.319C263.336 684.471 254.525 680.519 245.507 677.06L245.452 619.654Z"
     id="path87" />
  <path
     fill="#4D5D6B"
     d="M290.329 638.068Q310.773 647.201 331.388 655.942C330.791 675.502 330.924 695.204 331.125 714.772C317.8 707.959 303.612 702.617 290.12 696.077L290.144 659.972C290.14 652.718 289.82 645.302 290.329 638.068Z"
     id="path88" />
  <path
     fill="#4D5D6B"
     d="M382.605 678.092C396.06 683.835 409.65 689.33 423.043 695.203C422.595 715.278 422.77 735.54 423.222 755.615C409.453 750.337 396.147 743.323 382.565 737.492L382.605 678.092Z"
     id="path89" />
  <path
     fill="#4D5D6B"
     d="M336.046 657.91C340.91 659.53 345.678 662.016 350.365 664.103L377.882 676.328Q377.685 705.96 377.939 735.591L335.901 716.683C336.182 697.1 336.022 677.495 336.046 657.91Z"
     id="path90" />
  <path
     fill="#006C2A"
     d="M238.263 528.021C271.14 541.522 303.356 556.616 336.194 570.2L410.421 601.095C421.776 605.951 433.406 610.512 444.489 615.967L444.525 645.883C436.189 642.038 427.675 638.622 419.264 634.95Q379.985 617.627 340.255 601.364C323.958 594.548 307.901 587.135 291.638 580.225C273.895 572.686 255.918 565.639 238.442 557.49Q238.458 542.755 238.263 528.021Z"
     id="path91" />
  <path
     fill="#006C2A"
     d="M238.468 474.181C247.202 477.19 255.721 481.561 264.143 485.388Q282.093 493.548 300.296 501.128C319.435 509.074 338.794 516.424 357.961 524.263Q401.603 542.038 444.575 561.376Q444.496 576.344 444.644 591.312Q378.028 564.119 312.233 534.996C287.938 524.504 262.824 515.13 239.128 503.368C239.078 493.659 239.327 483.856 238.468 474.181Z"
     id="path92" />
  <path
     fill="#cccccc"
     d="m 431.049,375.674 c 6.35,3.538 12.692,6.836 19.568,9.261 l 0.766,0.331 c 2.064,4.034 11.396,7.095 15.645,8.994 15.512,7.426 31.541,14.061 46.865,21.822 l 38.283,17.269 c 14.716,6.75 29.372,13.781 44.358,19.914 13.082,6.316 26.418,12.735 39.974,17.956 2.491,0.959 5.11,1.494 7.576,2.411 l -133.147,43.7 c -7.631,2.537 -54.35,19.305 -59.224,19.433 -1.98,-2.704 -16.017,-7.758 -19.876,-9.514 -20.349,-9.261 -40.606,-18.736 -61.147,-27.584 -15.525,-6.687 -31.235,-12.943 -46.754,-19.65 l -44.154,-19.443 c -8.27667,-3.492 -16.577,-6.926 -24.901,-10.302 -4.799,-1.963 -10.482,-3.743 -14.789,-6.608 -1.857,-0.917 -3.755,-1.758 -5.636,-2.624 6.677,-3.588 14.406,-5.966 21.492,-8.619 z"
     id="path93" />
  <path
     fill="#96979C"
     d="M394.59 445.086C398.189 444.961 401.726 444.061 405.276 443.486C414.034 442.068 422.773 441.436 431.49 443.39C424.955 444.43 398.068 444.818 395.048 446.476L394.59 445.086Z"
     id="path94" />
  <path
     fill="#96979C"
     d="M446.462 469.138C456.157 468.046 466.109 467.238 475.681 469.604C466.006 471.492 454.451 470.046 445.901 471.885L446.462 469.138Z"
     id="path95" />
  <path
     fill="#96979C"
     d="M498.944 490.861C508.136 489.693 517.756 489.493 527.024 489.49C520.201 492.691 512.94 493.199 505.548 494.041C503.445 494.28 501.017 494.307 499.005 494.961L498.944 490.861Z"
     id="path96" />
  <path
     fill="#96979C"
     d="M496.347 451.673L498.378 452.188C500.18 455.266 498.879 485.091 498.944 490.861L499.005 494.961C497.155 496.098 495.759 496.86 493.583 497.153C493.742 487.237 493.624 477.303 493.649 467.385C493.66 463.432 493.225 458.627 493.848 454.74C494.136 452.944 494.983 452.71 496.347 451.673Z"
     id="path97" />
  <path
     fill="#96979C"
     d="M390.905 406.948C392.162 406.796 393.337 406.331 394.415 407.042C395.57 418.049 394.654 433.648 394.59 445.086L395.048 446.476C393.441 448.278 391.222 448.903 388.95 449.511C389.031 441.795 388.016 414.32 389.222 408.878C389.502 407.618 389.864 407.592 390.905 406.948Z"
     id="path98" />
  <path
     fill="#96979C"
     d="M442.981 428.011L445.98 428.328C447.343 430.081 446.516 464.704 446.462 469.138L445.901 471.885L441.407 474.036C441.419 471.249 441.303 468.529 441.079 465.752C441.262 460.074 440.08 432.49 441.75 429.332C442.031 428.8 442.57 428.452 442.981 428.011Z"
     id="path99" />
  <path
     fill="#96979c"
     d="m 346.592,404.885 c 0.23455,6.21468 0.69064,0 -0.067,6.32492 -15.081,5.324 -91.457,30.58008 -106.433,32.45408 -1.857,-0.917 -3.755,-1.758 -5.636,-2.624 6.677,-3.588 14.406,-5.966 21.492,-8.619 9.688,-3.73333 80.89933,-23.952 90.644,-27.536 z"
     id="path100" />
  <path
     fill="#96979c"
     d="m 346.525,398.876 61.696,-23.215 c 6.86,-2.524 15.348,-6.681 22.375,-7.828 l 0.333,-0.04 c 0.0753,2.62667 0.11533,5.25367 0.12,7.881 6.35,3.538 12.692,6.836 19.568,9.261 -12.499,3.714 -24.696,8.973 -36.896,13.584 -7.019,2.653 -15.59,6.966 -23.122,7.229 -1.938,-1.099 -3.085,-1.478 -5.303,-1.428 -0.284,0.007 -0.568,0.006 -0.853,0.014 -2.911,0.081 -4.649,0.695 -6.965,2.407 -0.808,1.248 -0.501,2.509 -0.368,3.912 -2.243,3.276 -24.817,9.868 -30.203,11.712 -0.61,-0.423 -0.771,-0.631 -0.934,-1.397 0.619,-16.083 0.619,-16.083 0.552,-22.092 z"
     id="path101" />
  <path
     fill="#fbfafa"
     d="m 346.525,398.876 61.696,-23.215 c 6.86,-2.524 15.348,-6.681 22.375,-7.828 l 0.095,6.849 c -12.64,2.443 -25.836,9.185 -37.979,13.676 -15.296,5.657 -31.014,10.365 -46.12,16.527 z"
     id="path102" />
  <path
     fill="#96979C"
     d="M644.776 472.69L645.31 472.729L647.261 473.892C647.573 487.89 645.806 603.101 647.931 607.902C638.231 613.201 627.042 616.761 616.757 620.91Q585.184 633.633 553.437 645.916C553.436 648.38 552.843 654.153 554.202 656.081C560.436 658.134 566.533 661.064 572.598 663.61L609.672 679.282C613.726 680.98 627.629 685.741 630.196 687.721C629.056 703.777 629.97 723.17 629.967 739.506C629.964 759.832 629.156 780.583 630.122 800.876L629.923 801.847C610.028 794.04 590.329 785.552 570.275 778.174C566.013 777.183 559.271 772.251 555.1 773.763L554.372 775.451C553.165 776.17 551.829 776.523 550.499 776.945C541.082 781.634 530.442 784.834 520.538 788.446L511.441 791.94C509.144 792.156 476.259 777.92 471.555 775.965C468.502 776.961 453.868 782.839 451.821 782.489L451.507 782.126C451.773 775.531 451.423 768.803 451.343 762.197L450.985 724.07Q450.179 650.721 450.53 577.367C450.593 570.182 449.924 542.182 451.713 536.765C456.587 536.637 503.306 519.869 510.937 517.332L644.084 473.632L644.776 472.69Z"
     id="path104" />
  <path
     fill="#74717F"
     d="M553.971 681.597C555.603 684.456 554.581 701.312 554.577 705.506L554.476 710.489C553.045 710.632 551.816 710.842 550.447 711.285Q540.653 714.804 531.003 718.699L528.069 719.775C524.906 720.81 521.741 721.822 518.639 723.033C516.307 723.791 514.162 724.591 511.973 725.725L511.535 724.061C510.29 725.069 509.069 726.129 507.729 727.005C506.209 724.343 500.546 723.172 497.869 721.422C497.816 720.952 497.871 721.201 497.619 720.599C497.253 719.728 496.385 719.68 495.543 719.332C492.592 717.884 487.794 715.164 484.608 716.243L482.88 715.734C481.385 714.811 479.612 714.142 478.016 713.394C475.741 712.268 473.677 711.624 471.226 711.042C470.239 709.543 470.503 708.327 470.469 706.557C480.245 705.941 503.448 696.88 514.113 693.406Q533.861 686.891 553.971 681.597Z"
     id="path105" />
  <defs
     id="defs106">
    <linearGradient
       id="gradient_0"
       gradientUnits="userSpaceOnUse"
       x1="483.97098"
       y1="722.34375"
       x2="496.27902"
       y2="709.90881">
      <stop
         offset="0"
         stop-color="#403C41"
         id="stop105" />
      <stop
         offset="1"
         stop-color="#5B525F"
         id="stop106" />
    </linearGradient>
  </defs>
  <path
     fill="url(#gradient_0)"
     d="M470.469 706.557C483.58 711.422 497.006 716.141 509.666 722.086C510.276 722.721 511.009 723.361 511.535 724.061C510.29 725.069 509.069 726.129 507.729 727.005C506.209 724.343 500.546 723.172 497.869 721.422C497.816 720.952 497.871 721.201 497.619 720.599C497.253 719.728 496.385 719.68 495.543 719.332C492.592 717.884 487.794 715.164 484.608 716.243L482.88 715.734C481.385 714.811 479.612 714.142 478.016 713.394C475.741 712.268 473.677 711.624 471.226 711.042C470.239 709.543 470.503 708.327 470.469 706.557Z"
     id="path106" />
  <path
     fill="#333"
     d="M509.666 722.086C515.383 719.114 521.757 717.113 527.819 714.961L554.577 705.506L554.476 710.489C553.045 710.632 551.816 710.842 550.447 711.285Q540.653 714.804 531.003 718.699L528.069 719.775C524.906 720.81 521.741 721.822 518.639 723.033C516.307 723.791 514.162 724.591 511.973 725.725L511.535 724.061C511.009 723.361 510.276 722.721 509.666 722.086Z"
     id="path107" />
  <path
     fill="#21B71A"
     d="M471.226 711.042C473.677 711.624 475.741 712.268 478.016 713.394C479.612 714.142 481.385 714.811 482.88 715.734L484.608 716.243C487.794 715.164 492.592 717.884 495.543 719.332C496.385 719.68 497.253 719.728 497.619 720.599C497.871 721.201 497.816 720.952 497.869 721.422C500.546 723.172 506.209 724.343 507.729 727.005L507.623 731.847L507.793 738.119C509.319 737.465 510.01 736.789 511.62 737.329L511.553 763.929C511.564 773.261 511.687 782.611 511.441 791.94C509.144 792.156 476.259 777.92 471.555 775.965C471.077 761.969 471.296 747.84 471.471 733.836C471.561 726.603 472.523 718.111 471.226 711.042Z"
     id="path108" />
  <path
     fill="#CCC"
     d="M478.016 713.394C479.612 714.142 481.385 714.811 482.88 715.734L484.608 716.243L487.655 717.47C487.206 720.147 487.275 722.818 487.275 725.525C487.474 726.948 487.994 728.88 487.551 730.226C484.846 728.604 481.884 727.478 478.982 726.255C478.685 726.113 478.349 725.719 478.105 725.491C477.604 721.542 477.939 717.374 478.016 713.394Z"
     id="path109" />
  <path
     fill="#333"
     d="M484.608 716.243C487.794 715.164 492.592 717.884 495.543 719.332C496.385 719.68 497.253 719.728 497.619 720.599C497.871 721.201 497.816 720.952 497.869 721.422C500.546 723.172 506.209 724.343 507.729 727.005L507.623 731.847L507.793 738.119C505.665 737.284 503.604 736.459 501.6 735.344L498.468 734.387C495.501 733.858 489.554 732.55 487.551 730.226C487.994 728.88 487.474 726.948 487.275 725.525C487.275 722.818 487.206 720.147 487.655 717.47L484.608 716.243Z"
     id="path110" />
  <path
     fill="#CCC"
     d="M497.869 721.422C500.546 723.172 506.209 724.343 507.729 727.005L507.623 731.847L507.793 738.119C505.665 737.284 503.604 736.459 501.6 735.344L498.468 734.387C496.678 731.828 497.468 724.602 497.869 721.422Z"
     id="path111" />
  <path
     fill="#006C2A"
     d="M550.447 711.285C551.816 710.842 553.045 710.632 554.476 710.489C553.777 716.602 554.026 722.928 554.076 729.073C554.203 744.401 555.279 760.172 554.372 775.451C553.165 776.17 551.829 776.523 550.499 776.945C541.082 781.634 530.442 784.834 520.538 788.446L511.441 791.94C511.687 782.611 511.564 773.261 511.553 763.929L511.62 737.329C510.01 736.789 509.319 737.465 507.793 738.119L507.623 731.847L507.729 727.005C509.069 726.129 510.29 725.069 511.535 724.061L511.973 725.725C514.162 724.591 516.307 723.791 518.639 723.033C521.741 721.822 524.906 720.81 528.069 719.775L531.003 718.699Q540.653 714.804 550.447 711.285Z"
     id="path112" />
  <path
     fill="#75555B"
     d="M528.069 719.775L531.003 718.699C531.041 722.354 531.789 728.381 529.967 731.553L528.438 732.211C527.556 727.407 527.009 724.693 528.069 719.775Z"
     id="path113" />
  <path
     fill="#20A75F"
     d="M511.535 724.061L511.973 725.725C511.982 728.987 512.602 734.308 511.62 737.329C510.01 736.789 509.319 737.465 507.793 738.119L507.623 731.847L507.729 727.005C509.069 726.129 510.29 725.069 511.535 724.061Z"
     id="path114" />
  <path
     fill="#74717F"
     d="M518.639 723.033C521.741 721.822 524.906 720.81 528.069 719.775C527.009 724.693 527.556 727.407 528.438 732.211C525.483 732.773 522.48 733.888 519.587 734.746C519.051 730.879 518.902 726.929 518.639 723.033Z"
     id="path115" />
  <path
     fill="#20A75F"
     d="M550.447 711.285C551.816 710.842 553.045 710.632 554.476 710.489C553.777 716.602 554.026 722.928 554.076 729.073C554.203 744.401 555.279 760.172 554.372 775.451C553.165 776.17 551.829 776.523 550.499 776.945C550.564 771.989 551.629 755.667 550.137 751.684L549.008 751.643C537.291 756.299 524.784 760.602 512.65 764.079C512.717 763.776 512.817 763.266 512.944 762.995C513.752 761.275 542.745 751.593 546.831 750.118C548.027 749.832 549.281 749.158 550.426 748.685Q550.231 729.985 550.447 711.285Z"
     id="path116" />
  <path
     fill="#006C2A"
     d="M628.9 503.593C630.272 508.952 629.248 526.105 629.309 532.65C624.557 535.018 618.874 536.425 613.822 538.066L586.116 547.094Q552.631 558.448 518.95 569.209C497.798 575.969 476.488 582.298 455.827 590.462L455.494 590.346C454.356 587.791 455.008 566.454 454.965 561.554C463.609 556.918 474.314 554.306 483.611 551.112C509.801 542.115 536.271 534.057 562.631 525.594Q583.931 518.734 605.124 511.55C612.943 508.881 620.897 505.607 628.9 503.593Z"
     id="path117" />
  <path
     fill="#006C2A"
     d="M628.883 557.097C630.155 558.503 629.434 583.624 629.425 587.503C610.55 592.902 591.997 599.881 573.312 605.943Q513.88 624.899 454.979 645.447L454.752 645.259C453.555 642.086 454.486 620.31 454.511 615.476C461.841 612.021 470.006 609.756 477.693 607.194Q499.696 599.807 521.833 592.833L628.883 557.097Z"
     id="path118" />
  <path
     fill="#96979C"
     d="M554.202 656.081C560.436 658.134 566.533 661.064 572.598 663.61L609.672 679.282C613.726 680.98 627.629 685.741 630.196 687.721C629.056 703.777 629.97 723.17 629.967 739.506C629.964 759.832 629.156 780.583 630.122 800.876L629.923 801.847C610.028 794.04 590.329 785.552 570.275 778.174C566.013 777.183 559.271 772.251 555.1 773.763L554.372 775.451C555.279 760.172 554.203 744.401 554.076 729.073C554.026 722.928 553.777 716.602 554.476 710.489L554.577 705.506C554.581 701.312 555.603 684.456 553.971 681.597L554.415 681.203C555.33 676.959 554.854 660.745 554.202 656.081Z"
     id="path119" />
</svg>
