<?xml version="1.0" encoding="UTF-8" standalone="no"?>
<!DOCTYPE svg PUBLIC "-//W3C//DTD SVG 1.1//EN" "http://www.w3.org/Graphics/SVG/1.1/DTD/svg11.dtd">
<!-- Создано Microsoft Visio, экспорт SVG window.svg Страница-1 -->
<svg xmlns="http://www.w3.org/2000/svg" xmlns:xlink="http://www.w3.org/1999/xlink" xmlns:ev="http://www.w3.org/2001/xml-events"
		xmlns:v="http://schemas.microsoft.com/visio/2003/SVGExtensions/" width="42.75px" height="5px"
		viewBox="0 0 101.2 11.2" xml:space="preserve" color-interpolation-filters="sRGB" class="st2">
	<v:documentProperties v:langID="1049" v:metric="true" v:viewMarkup="false"/>

	<style type="text/css">
	<![CDATA[
		.st1 {fill:#000000;stroke:none;stroke-linecap:butt;stroke-width:0.1}
		.st2 {fill:none;fill-rule:evenodd;font-size:12px;overflow:visible;stroke-linecap:square;stroke-miterlimit:3}
	]]>
	</style>

	<g v:mID="0" v:index="1" v:groupContext="foregroundPage">
		<title>Страница-1</title>
		<v:pageProperties v:drawingScale="1" v:pageScale="1" v:drawingUnits="19" v:shadowOffsetX="9" v:shadowOffsetY="-9"/>
		<g id="shape11-1" v:mID="11" v:groupContext="shape" transform="translate(0.1,11.3) scale(1,-1)">
			<title>Лист.11</title>
			<path d="M0 5.7 L0 0.2 L50.5 0.2 L101 0.2 L101 5.7 L101 11.2 L50.5 11.2 L0 11.2 L0 5.7 ZM100 8.2 C100 6.2 99.3 6.2 50.5
						 6.2 C1.7 6.2 1 6.2 1 8.2 C1 10.2 1.7 10.2 50.5 10.2 C99.3 10.2 100 10.2 100 8.2 ZM100 3.2 C100 1.2 99.3
						 1.2 50.5 1.2 C1.7 1.2 1 1.2 1 3.2 C1 5.2 1.7 5.2 50.5 5.2 C99.3 5.2 100 5.2 100 3.2 Z" class="st1"/>
		</g>
	</g>
</svg>
